<svg xmlns="http://www.w3.org/2000/svg" xmlns:xlink="http://www.w3.org/1999/xlink" width="1080" zoomAndPan="magnify" viewBox="0 0 810 809.999993" height="1080" preserveAspectRatio="xMidYMid meet" version="1.0"><defs><clipPath id="df807b0579"><path d="M 203.34375 388 L 607.445312 388 L 607.445312 416.117188 L 203.34375 416.117188 Z M 203.34375 388 " clip-rule="nonzero"/></clipPath><clipPath id="d9b7c78b49"><path d="M 246 315.089844 L 401 315.089844 L 401 387 L 246 387 Z M 246 315.089844 " clip-rule="nonzero"/></clipPath><clipPath id="0aa3e5c147"><path d="M 408 315.089844 L 564 315.089844 L 564 387 L 408 387 Z M 408 315.089844 " clip-rule="nonzero"/></clipPath><clipPath id="a6f39cfb1e"><path d="M 300.03125 243 L 404.933594 243 L 404.933594 275 L 300.03125 275 Z M 300.03125 243 " clip-rule="nonzero"/></clipPath></defs><rect x="-81" width="972" fill="#ffffff" y="-80.999999" height="971.999992" fill-opacity="1"/><rect x="-81" width="972" fill="#ffffff" y="-80.999999" height="971.999992" fill-opacity="1"/><rect x="-81" width="972" fill="#ffffff" y="-80.999999" height="971.999992" fill-opacity="1"/><rect x="-81" width="972" fill="#5ce1e6" y="-80.999999" height="971.999992" fill-opacity="1"/><g clip-path="url(#df807b0579)"><path fill="#000000" d="M 600.867188 416.117188 L 421.179688 416.117188 C 419.601562 416.117188 418.023438 415.457031 416.773438 414.207031 L 405.394531 403.160156 L 394.015625 414.207031 C 392.765625 415.457031 391.1875 416.117188 389.609375 416.117188 L 209.921875 416.117188 C 206.503906 416.117188 203.675781 413.222656 203.675781 409.800781 C 203.675781 406.316406 206.503906 403.488281 209.921875 403.488281 L 387.109375 403.488281 L 400.988281 389.875 C 403.488281 387.375 407.300781 387.375 409.800781 389.875 L 423.679688 403.488281 L 600.867188 403.488281 C 604.289062 403.488281 607.183594 406.316406 607.183594 409.800781 C 607.183594 413.222656 604.289062 416.117188 600.867188 416.117188 Z M 600.867188 416.117188 " fill-opacity="1" fill-rule="nonzero"/></g><g clip-path="url(#d9b7c78b49)"><path fill="#000000" d="M 246.226562 327.390625 L 280.890625 315.089844 C 280.890625 315.089844 367.578125 316.667969 400.660156 367.773438 L 400.660156 386.386719 C 400.660156 386.386719 350.214844 327.390625 246.226562 327.390625 Z M 246.226562 327.390625 " fill-opacity="1" fill-rule="nonzero"/></g><path fill="#000000" d="M 238.335938 338.441406 L 257.210938 332.125 C 257.210938 332.125 345.476562 332.125 395.925781 384.808594 C 395.925781 385.136719 329.757812 341.597656 238.335938 338.441406 Z M 238.335938 338.441406 " fill-opacity="1" fill-rule="nonzero"/><path fill="#000000" d="M 228.863281 366.195312 L 238.335938 347.582031 C 238.335938 347.582031 339.230469 350.738281 392.765625 384.808594 C 392.765625 385.136719 266.683594 357.054688 228.863281 366.195312 Z M 228.863281 366.195312 " fill-opacity="1" fill-rule="nonzero"/><path fill="#000000" d="M 222.550781 381.980469 C 222.550781 381.980469 279.3125 363.367188 392.765625 391.453125 C 392.765625 391.453125 276.152344 379.152344 219.394531 391.453125 Z M 222.550781 381.980469 " fill-opacity="1" fill-rule="nonzero"/><g clip-path="url(#0aa3e5c147)"><path fill="#000000" d="M 563.050781 327.390625 L 528.320312 315.089844 C 528.320312 315.089844 441.636719 316.667969 408.550781 367.773438 L 408.550781 386.386719 C 408.550781 386.386719 459 327.390625 563.050781 327.390625 Z M 563.050781 327.390625 " fill-opacity="1" fill-rule="nonzero"/></g><path fill="#000000" d="M 570.875 338.441406 L 552 332.125 C 552 332.125 463.734375 332.125 413.289062 384.808594 C 413.289062 385.136719 479.453125 341.597656 570.875 338.441406 Z M 570.875 338.441406 " fill-opacity="1" fill-rule="nonzero"/><path fill="#000000" d="M 580.347656 366.195312 L 570.875 347.582031 C 570.875 347.582031 470.046875 350.738281 416.445312 384.808594 C 416.445312 385.136719 542.527344 357.054688 580.347656 366.195312 Z M 580.347656 366.195312 " fill-opacity="1" fill-rule="nonzero"/><path fill="#000000" d="M 586.660156 381.980469 C 586.660156 381.980469 529.902344 363.367188 416.445312 391.453125 C 416.445312 391.453125 533.058594 379.152344 589.820312 391.453125 Z M 586.660156 381.980469 " fill-opacity="1" fill-rule="nonzero"/><g clip-path="url(#a6f39cfb1e)"><path fill="#000000" d="M 352.515625 257.738281 C 351.527344 256.355469 331.203125 230.046875 300.226562 254.054688 C 300.226562 254.054688 319.695312 248.398438 331.140625 252.871094 C 337.386719 255.371094 351.332031 272.667969 352.449219 274.117188 C 352.515625 274.117188 352.515625 274.117188 352.515625 274.179688 C 352.515625 274.117188 352.582031 274.117188 352.582031 274.117188 C 353.765625 272.667969 367.640625 255.371094 373.890625 252.871094 C 385.402344 248.398438 404.804688 254.054688 404.804688 254.054688 C 373.824219 230.046875 353.566406 256.355469 352.515625 257.738281 " fill-opacity="1" fill-rule="nonzero"/></g><path fill="#000000" d="M 428.085938 288.125 C 427.363281 287.136719 412.761719 268.195312 390.53125 285.492188 C 390.53125 285.492188 404.472656 281.417969 412.761719 284.640625 C 417.234375 286.414062 427.230469 298.84375 428.019531 299.898438 C 428.085938 299.898438 428.085938 299.898438 428.085938 299.898438 C 428.941406 298.84375 438.9375 286.414062 443.410156 284.640625 C 451.699219 281.417969 465.640625 285.492188 465.640625 285.492188 C 443.410156 268.195312 428.808594 287.136719 428.085938 288.125 " fill-opacity="1" fill-rule="nonzero"/><path fill="#000000" d="M 413.75 209.855469 C 412.5625 208.210938 388.753906 177.367188 352.515625 205.515625 C 352.515625 205.515625 375.273438 198.871094 388.753906 204.132812 C 396.054688 207.027344 412.367188 227.285156 413.75 228.996094 C 413.75 228.996094 413.75 229.0625 413.75 229.0625 C 413.8125 229.0625 413.8125 228.996094 413.8125 228.996094 C 415.195312 227.285156 431.441406 207.027344 438.808594 204.132812 C 452.222656 198.871094 475.046875 205.515625 475.046875 205.515625 C 438.742188 177.367188 414.996094 208.210938 413.75 209.855469 " fill-opacity="1" fill-rule="nonzero"/><path fill="#000000" d="M 279.160156 556.042969 C 268.964844 556.042969 260.808594 554.132812 254.691406 550.253906 C 248.511719 546.4375 245.484375 540.980469 245.484375 533.941406 C 245.484375 531.3125 245.878906 528.550781 246.800781 525.523438 C 247.851562 522.5625 249.167969 519.867188 250.746094 517.367188 C 252.457031 514.738281 254.429688 512.765625 256.535156 511.316406 L 261.53125 519.472656 C 260.613281 520.394531 259.757812 521.839844 258.902344 523.945312 C 258.179688 525.917969 257.847656 527.628906 257.847656 529.207031 C 257.980469 530.785156 258.769531 532.496094 260.21875 534.207031 C 261.796875 535.785156 264.296875 537.296875 267.847656 538.679688 C 271.53125 539.925781 276.527344 540.519531 282.84375 540.519531 C 286 540.519531 289.289062 540.386719 292.839844 539.992188 C 296.523438 539.46875 299.746094 538.613281 302.574219 537.363281 C 305.535156 536.179688 307.636719 534.335938 308.886719 531.835938 C 310.070312 529.207031 309.742188 525.785156 307.835938 521.578125 C 306.585938 518.816406 305.074219 515.988281 303.363281 513.160156 C 301.785156 510.199219 300.273438 507.566406 298.890625 505.265625 L 310.203125 487.113281 C 310.730469 487.835938 311.519531 489.21875 312.570312 491.324219 C 313.753906 493.425781 315.070312 495.992188 316.519531 498.953125 C 317.898438 501.78125 319.214844 504.871094 320.464844 508.160156 C 321.648438 511.316406 322.632812 514.34375 323.359375 517.105469 C 324.015625 520.128906 324.277344 523.351562 324.148438 526.839844 C 324.148438 530.191406 323.421875 533.613281 322.042969 537.097656 C 320.792969 540.652344 318.492188 543.808594 315.203125 546.570312 C 312.046875 549.398438 307.441406 551.699219 301.523438 553.410156 C 295.734375 555.1875 288.234375 556.042969 279.160156 556.042969 Z M 268.109375 507.109375 C 265.808594 507.109375 263.769531 506.316406 262.058594 504.738281 C 260.480469 503.03125 259.691406 500.925781 259.691406 498.425781 C 259.691406 496.191406 260.480469 494.214844 262.058594 492.636719 C 263.769531 490.929688 265.808594 490.007812 268.109375 490.007812 C 270.015625 490.007812 271.660156 490.46875 273.109375 491.324219 C 274.488281 492.242188 275.476562 493.425781 276.003906 495.003906 C 276.859375 493.425781 277.910156 492.242188 279.160156 491.324219 C 280.539062 490.46875 282.121094 490.007812 283.894531 490.007812 C 286.328125 490.007812 288.367188 490.929688 289.945312 492.636719 C 291.65625 494.214844 292.578125 496.191406 292.578125 498.425781 C 292.578125 500.925781 291.65625 503.03125 289.945312 504.738281 C 288.367188 506.316406 286.328125 507.109375 283.894531 507.109375 C 282.121094 507.109375 280.539062 506.714844 279.160156 505.792969 C 277.910156 504.738281 276.859375 503.425781 276.003906 501.847656 C 275.476562 503.425781 274.488281 504.738281 273.109375 505.792969 C 271.660156 506.714844 270.015625 507.109375 268.109375 507.109375 Z M 268.109375 507.109375 " fill-opacity="1" fill-rule="nonzero"/><path fill="#000000" d="M 369.015625 556.042969 C 363.359375 556.042969 358.621094 555.121094 354.808594 553.148438 C 351.125 551.238281 348.097656 547.621094 345.863281 542.359375 C 343.757812 536.96875 342.441406 529.207031 341.917969 519.210938 L 336.917969 451.859375 L 356.386719 445.808594 L 355.332031 519.734375 C 355.136719 527.101562 356.1875 532.496094 358.492188 535.785156 C 360.726562 539.136719 364.277344 540.78125 369.015625 540.78125 C 369.671875 540.78125 370.328125 541.703125 370.855469 543.414062 C 371.511719 544.992188 371.90625 546.703125 371.90625 548.410156 C 371.90625 550.1875 371.511719 551.964844 370.855469 553.671875 C 370.328125 555.253906 369.671875 556.042969 369.015625 556.042969 Z M 369.015625 556.042969 " fill-opacity="1" fill-rule="nonzero"/><path fill="#000000" d="M 368.964844 556.042969 C 368.304688 556.042969 367.648438 555.253906 367.121094 553.671875 C 366.464844 551.964844 366.070312 550.1875 366.070312 548.410156 C 366.070312 546.703125 366.464844 544.992188 367.121094 543.414062 C 367.648438 541.703125 368.304688 540.78125 368.964844 540.78125 C 372.253906 540.78125 375.34375 540.257812 378.171875 539.203125 C 380.933594 538.019531 383.171875 536.308594 384.75 534.207031 C 386.457031 531.96875 387.246094 529.140625 387.117188 525.785156 L 383.695312 492.375 L 403.953125 487.375 L 403.691406 524.996094 C 403.691406 531.179688 402.113281 536.574219 398.957031 541.308594 C 395.929688 545.914062 391.851562 549.464844 386.589844 552.09375 C 381.328125 554.726562 375.410156 556.042969 368.964844 556.042969 Z M 380.539062 579.457031 C 378.238281 579.457031 376.199219 578.535156 374.488281 576.824219 C 372.910156 575.246094 372.121094 573.273438 372.121094 571.039062 C 372.121094 568.539062 372.910156 566.433594 374.488281 564.722656 C 376.199219 563.144531 378.238281 562.355469 380.539062 562.355469 C 382.445312 562.355469 384.023438 562.75 385.273438 563.671875 C 386.65625 564.722656 387.707031 566.039062 388.433594 567.617188 C 389.089844 566.039062 390.140625 564.722656 391.589844 563.671875 C 392.96875 562.75 394.546875 562.355469 396.324219 562.355469 C 398.5625 562.355469 400.597656 563.144531 402.375 564.722656 C 404.085938 566.433594 405.007812 568.539062 405.007812 571.039062 C 405.007812 573.273438 404.085938 575.246094 402.375 576.824219 C 400.597656 578.535156 398.5625 579.457031 396.324219 579.457031 C 394.546875 579.457031 392.96875 578.996094 391.589844 578.140625 C 390.140625 577.21875 389.089844 576.035156 388.433594 574.457031 C 387.707031 576.035156 386.65625 577.21875 385.273438 578.140625 C 384.023438 578.996094 382.445312 579.457031 380.539062 579.457031 Z M 380.539062 579.457031 " fill-opacity="1" fill-rule="nonzero"/><path fill="#000000" d="M 423.15625 552.09375 L 421.3125 552.09375 L 415.527344 451.597656 L 435.257812 445.808594 L 432.363281 531.3125 Z M 423.15625 552.09375 " fill-opacity="1" fill-rule="nonzero"/><path fill="#000000" d="M 477.101562 584.980469 L 467.890625 570.511719 L 467.890625 567.617188 C 471.179688 567.222656 474.601562 566.367188 478.152344 564.988281 C 481.835938 563.539062 485.320312 561.699219 488.675781 559.460938 C 491.964844 557.355469 494.792969 554.988281 497.09375 552.359375 L 496.832031 551.832031 C 491.042969 554.464844 485.519531 555.777344 480.257812 555.777344 C 475.652344 555.777344 471.3125 554.921875 467.101562 553.148438 C 463.023438 551.238281 459.539062 548.609375 456.578125 545.253906 C 453.554688 541.964844 451.1875 538.285156 449.476562 534.207031 C 447.699219 529.996094 446.84375 525.65625 446.84375 521.050781 C 446.84375 516.710938 447.699219 512.5 449.476562 508.421875 C 451.1875 504.214844 453.488281 500.464844 456.316406 497.109375 C 459.277344 493.820312 462.695312 491.191406 466.578125 489.21875 C 470.589844 487.308594 474.863281 486.324219 479.46875 486.324219 C 485.257812 486.324219 490.582031 488.101562 495.515625 491.585938 C 500.582031 494.941406 504.722656 499.9375 507.882812 506.582031 C 511.171875 513.09375 512.878906 521.25 512.878906 531.046875 C 512.878906 540.914062 511.171875 549.597656 507.882812 557.09375 C 504.527344 564.789062 500.121094 571.039062 494.726562 575.773438 C 489.269531 580.640625 483.414062 583.730469 477.101562 584.980469 Z M 480.257812 536.574219 C 483.414062 536.574219 486.308594 535.785156 488.9375 534.207031 C 491.703125 532.625 493.804688 530.523438 495.253906 527.890625 C 496.832031 525.128906 497.621094 522.234375 497.621094 519.210938 C 497.621094 515.921875 496.832031 512.894531 495.253906 510.265625 C 493.804688 507.503906 491.703125 505.265625 488.9375 503.6875 C 486.308594 502.109375 483.414062 501.320312 480.257812 501.320312 C 476.902344 501.320312 473.945312 502.109375 471.3125 503.6875 C 468.683594 505.265625 466.578125 507.503906 465 510.265625 C 463.421875 512.894531 462.628906 515.921875 462.628906 519.210938 C 462.628906 522.234375 463.421875 525.128906 465 527.890625 C 466.578125 530.523438 468.683594 532.625 471.3125 534.207031 C 473.945312 535.785156 476.902344 536.574219 480.257812 536.574219 Z M 480.257812 536.574219 " fill-opacity="1" fill-rule="nonzero"/><path fill="#000000" d="M 532.824219 583.929688 L 518.617188 571.039062 L 518.617188 568.667969 C 521.25 568.667969 524.144531 567.878906 527.300781 566.300781 C 530.589844 564.855469 533.875 562.882812 537.035156 560.25 C 540.191406 557.75 542.953125 554.921875 545.453125 551.570312 C 547.886719 548.28125 549.726562 544.730469 550.976562 541.046875 C 552.160156 537.230469 552.359375 533.351562 551.503906 529.46875 L 543.875 496.585938 L 564.132812 485.269531 L 563.34375 536.308594 C 563.34375 543.675781 561.828125 550.714844 558.871094 557.355469 C 556.042969 564 552.359375 569.589844 547.820312 574.195312 C 543.214844 578.929688 538.21875 582.152344 532.824219 583.929688 Z M 532.824219 583.929688 " fill-opacity="1" fill-rule="nonzero"/></svg>