<svg xmlns="http://www.w3.org/2000/svg" xmlns:xlink="http://www.w3.org/1999/xlink" width="1080" zoomAndPan="magnify" viewBox="0 0 810 809.999993" height="1080" preserveAspectRatio="xMidYMid meet" version="1.2"><defs><clipPath id="d85ed90a29"><path d="M 163 216 L 647 216 L 647 522.851562 L 163 522.851562 Z M 163 216 "/></clipPath></defs><g id="2a93c0698b"><rect x="0" width="810" y="0" height="809.999993" style="fill:#ffffff;fill-opacity:1;stroke:none;"/><rect x="0" width="810" y="0" height="809.999993" style="fill:#5ce1e6;fill-opacity:1;stroke:none;"/><g clip-rule="nonzero" clip-path="url(#d85ed90a29)"><path style=" stroke:none;fill-rule:nonzero;fill:#000000;fill-opacity:1;" d="M 645.226562 343.121094 C 642.292969 336.046875 634.179688 332.699219 627.121094 335.625 C 580.207031 355.070312 542.527344 356.25 513.386719 349.738281 C 512.683594 349.511719 511.96875 349.378906 511.257812 349.277344 C 461.535156 337.355469 437.453125 303.039062 435.824219 300.628906 C 431.566406 294.277344 422.964844 292.5625 416.632812 296.792969 C 410.257812 301.03125 408.519531 309.632812 412.761719 316.003906 C 413.171875 316.625 437.246094 351.574219 485.828125 369.902344 C 479.5625 387.710938 468.925781 421.914062 466.058594 456.21875 C 466.058594 456.21875 468.941406 456.773438 473.804688 457.558594 C 471.429688 480.972656 470.824219 498.816406 470.785156 500.5 C 470.550781 508.152344 476.5625 514.539062 484.203125 514.773438 C 484.347656 514.773438 484.5 514.785156 484.636719 514.785156 C 492.097656 514.785156 498.242188 508.859375 498.476562 501.359375 C 498.496094 500.960938 499.074219 483.664062 501.328125 460.976562 C 509.113281 461.667969 517.59375 462.191406 526.195312 462.265625 C 542.65625 499.691406 564.773438 518.289062 566.289062 519.535156 C 568.859375 521.628906 571.957031 522.648438 575.027344 522.648438 C 579.050781 522.648438 583.039062 520.910156 585.792969 517.542969 C 590.617188 511.613281 589.726562 502.886719 583.789062 498.046875 C 583.515625 497.828125 568.957031 485.523438 555.976562 460.347656 C 563.632812 459.121094 570.695312 457.238281 576.621094 454.445312 C 576.621094 454.445312 562.871094 412.449219 561.945312 380.25 C 584.585938 378.515625 609.820312 372.796875 637.742188 361.226562 C 644.8125 358.300781 648.167969 350.1875 645.226562 343.121094 Z M 392.988281 296.847656 C 386.644531 292.597656 378.050781 294.285156 373.773438 300.613281 C 372.230469 302.90625 348.148438 337.347656 298.328125 349.28125 C 297.601562 349.386719 296.882812 349.527344 296.175781 349.746094 C 267.039062 356.25 229.371094 355.066406 182.460938 335.625 C 175.394531 332.695312 167.28125 336.046875 164.359375 343.121094 C 161.425781 350.1875 164.777344 358.300781 171.851562 361.226562 C 206.070312 375.410156 236.289062 380.90625 262.578125 380.90625 C 262.886719 380.90625 263.167969 380.863281 263.476562 380.863281 C 265.203125 392.007812 267.144531 408.691406 266.792969 426.300781 C 254 473.90625 227.304688 496.804688 225.742188 498.097656 C 219.855469 502.925781 218.980469 511.625 223.800781 517.550781 C 226.542969 520.914062 230.523438 522.652344 234.550781 522.652344 C 237.628906 522.652344 240.722656 521.632812 243.296875 519.539062 C 245.078125 518.085938 275.527344 492.445312 291.542969 440.175781 C 296.113281 439.296875 300.878906 438.613281 305.578125 438.308594 C 310.09375 471.140625 311.097656 500.839844 311.113281 501.359375 C 311.351562 508.855469 317.5 514.789062 324.957031 514.789062 C 325.101562 514.789062 325.238281 514.78125 325.394531 514.78125 C 333.03125 514.542969 339.039062 508.15625 338.804688 500.503906 C 338.746094 498.328125 337.769531 469.21875 333.214844 435.898438 C 333.304688 420.710938 333.183594 390.65625 331.261719 366.882812 C 374.820312 347.988281 396.445312 316.59375 396.835938 316.003906 C 401.046875 309.644531 399.324219 301.097656 392.988281 296.847656 Z M 281.222656 345.394531 C 309.945312 345.394531 333.226562 322.117188 333.226562 293.394531 C 333.226562 264.675781 309.945312 241.394531 281.222656 241.394531 C 252.5 241.394531 229.214844 264.675781 229.214844 293.394531 C 229.214844 322.117188 252.507812 345.394531 281.222656 345.394531 Z M 496.230469 253.851562 C 497.238281 255.644531 496.992188 257.917969 495.648438 259.484375 C 490.1875 265.816406 486.222656 273.535156 484.332031 282.371094 C 478.089844 311.59375 497.707031 340.320312 527.765625 344.71875 C 554.625 348.648438 580.46875 330.542969 586.078125 303.988281 C 587.921875 295.257812 587.445312 286.625 585.058594 278.644531 C 584.476562 276.691406 585.1875 274.53125 586.816406 273.308594 C 601.636719 262.148438 587.675781 313.964844 640.773438 302.222656 C 608.027344 294.558594 624.265625 264.59375 620.242188 252.492188 C 616.386719 241.164062 596.183594 231.097656 578.058594 259.871094 C 577.40625 260.929688 575.933594 261.015625 575.144531 260.054688 C 567.960938 251.316406 558.003906 244.949219 546.078125 242.394531 C 534.246094 239.859375 522.476562 241.589844 512.425781 246.558594 C 511.316406 247.109375 510.015625 246.433594 509.84375 245.207031 C 504.992188 211.589844 482.417969 212.507812 474.273438 221.277344 C 465.644531 230.671875 468.207031 264.660156 435.191406 258.261719 C 478.707031 290.660156 487.230469 237.835938 496.230469 253.851562 Z M 496.230469 253.851562 "/></g></g></svg>