<svg xmlns="http://www.w3.org/2000/svg" xmlns:xlink="http://www.w3.org/1999/xlink" width="1080" zoomAndPan="magnify" viewBox="0 0 810 809.999993" height="1080" preserveAspectRatio="xMidYMid meet" version="1.2"><defs><clipPath id="dee0c0088d"><path d="M 433 192.21875 L 634 192.21875 L 634 477 L 433 477 Z M 433 192.21875 "/></clipPath></defs><g id="f472f296e0"><rect x="0" width="810" y="0" height="809.999993" style="fill:#ffffff;fill-opacity:1;stroke:none;"/><rect x="0" width="810" y="0" height="809.999993" style="fill:#5ce1e6;fill-opacity:1;stroke:none;"/><path style=" stroke:none;fill-rule:nonzero;fill:#000000;fill-opacity:1;" d="M 440.175781 553.519531 L 440.175781 270.246094 C 440.175781 233.296875 448.980469 213.941406 492.992188 213.941406 L 492.992188 194.589844 L 315.183594 194.589844 L 315.183594 213.941406 C 360.953125 213.941406 371.519531 233.296875 371.519531 270.246094 L 371.519531 553.519531 C 371.519531 583.429688 362.714844 597.503906 318.703125 597.503906 L 318.703125 616.859375 L 496.511719 616.859375 L 496.511719 597.503906 C 450.738281 597.503906 440.175781 583.429688 440.175781 553.519531 Z M 440.175781 553.519531 "/><g clip-rule="nonzero" clip-path="url(#dee0c0088d)"><path style=" stroke:none;fill-rule:nonzero;fill:#000000;fill-opacity:1;" d="M 433.136719 440.914062 C 540.527344 440.914062 547.566406 421.558594 547.566406 315.992188 C 547.566406 287.839844 551.089844 192.828125 621.507812 192.828125 C 635.59375 194.589844 633.832031 194.589844 633.832031 194.589844 L 633.832031 215.703125 C 610.945312 215.703125 598.621094 231.535156 598.621094 263.207031 L 598.621094 335.34375 C 598.621094 470.824219 501.792969 476.101562 480.667969 476.101562 C 468.34375 476.101562 433.136719 476.101562 433.136719 476.101562 Z M 433.136719 440.914062 "/></g><path style=" stroke:none;fill-rule:nonzero;fill:#000000;fill-opacity:1;" d="M 376.800781 440.914062 C 269.410156 440.914062 262.367188 421.558594 262.367188 317.75 C 262.367188 289.597656 258.847656 194.589844 188.425781 194.589844 C 174.34375 194.589844 176.101562 194.589844 176.101562 194.589844 L 176.101562 215.703125 C 198.988281 215.703125 211.3125 231.535156 211.3125 263.207031 L 211.3125 335.34375 C 211.3125 470.824219 308.140625 476.101562 329.265625 476.101562 C 341.589844 476.101562 376.800781 476.101562 376.800781 476.101562 Z M 376.800781 440.914062 "/></g></svg>