<svg xmlns="http://www.w3.org/2000/svg" xmlns:xlink="http://www.w3.org/1999/xlink" width="1080" zoomAndPan="magnify" viewBox="0 0 810 809.999993" height="1080" preserveAspectRatio="xMidYMid meet" version="1.2"><defs><clipPath id="2c98edb1c1"><path d="M 159.027344 141 L 651 141 L 651 633.429688 L 159.027344 633.429688 Z M 159.027344 141 "/></clipPath></defs><g id="edb2198e43"><rect x="0" width="810" y="0" height="809.999993" style="fill:#ffffff;fill-opacity:1;stroke:none;"/><rect x="0" width="810" y="0" height="809.999993" style="fill:#5ce1e6;fill-opacity:1;stroke:none;"/><g clip-rule="nonzero" clip-path="url(#2c98edb1c1)"><path style=" stroke:none;fill-rule:evenodd;fill:#000000;fill-opacity:1;" d="M 404.742188 614.992188 C 404.742188 616.375 402.335938 618.46875 398.71875 618.46875 L 344.761719 618.46875 C 341.121094 618.46875 338.726562 616.375 338.726562 614.992188 L 338.726562 419.683594 C 338.726562 418.292969 341.121094 416.207031 344.761719 416.207031 L 398.71875 416.207031 C 402.335938 416.207031 404.742188 418.292969 404.742188 419.683594 Z M 398.71875 401.285156 L 344.757812 401.285156 C 333.1875 401.285156 323.792969 409.539062 323.792969 419.683594 L 323.792969 614.992188 C 323.792969 625.136719 333.1875 633.394531 344.757812 633.394531 L 398.71875 633.394531 C 410.269531 633.394531 419.667969 625.136719 419.667969 614.992188 L 419.667969 419.683594 C 419.667969 409.539062 410.273438 401.285156 398.71875 401.285156 Z M 256.335938 616.3125 C 255.9375 616.992188 253.753906 618.472656 250.308594 618.472656 L 196.34375 618.472656 C 192.886719 618.472656 190.703125 616.992188 190.3125 616.3125 L 190.3125 517.25 C 190.703125 516.578125 192.886719 515.09375 196.34375 515.09375 L 250.308594 515.09375 C 253.753906 515.09375 255.9375 516.578125 256.335938 517.25 Z M 250.308594 500.171875 L 196.34375 500.171875 C 184.585938 500.171875 175.382812 507.617188 175.382812 517.105469 L 175.382812 616.464844 C 175.382812 625.957031 184.589844 633.390625 196.34375 633.390625 L 250.308594 633.390625 C 262.0625 633.390625 271.265625 625.957031 271.265625 616.464844 L 271.265625 517.105469 C 271.269531 507.617188 262.0625 500.171875 250.308594 500.171875 Z M 325.191406 318.734375 L 288.707031 282.269531 L 172.5 398.398438 C 169.574219 401.316406 164.863281 401.316406 161.941406 398.398438 C 159.027344 395.488281 159.027344 390.757812 161.941406 387.847656 L 283.433594 266.441406 C 286.339844 263.539062 291.066406 263.539062 293.984375 266.441406 L 330.464844 302.90625 L 446.675781 186.777344 C 449.589844 183.867188 454.320312 183.867188 457.226562 186.777344 L 493.71875 223.238281 L 554.84375 162.152344 L 530.429688 167.914062 C 526.414062 168.871094 522.394531 166.378906 521.449219 162.371094 C 520.503906 158.359375 522.976562 154.34375 526.992188 153.398438 L 578.554688 141.21875 C 583.921875 139.953125 588.800781 144.820312 587.535156 150.191406 L 575.359375 201.71875 C 574.402344 205.730469 570.382812 208.214844 566.371094 207.257812 C 562.359375 206.316406 559.871094 202.296875 560.828125 198.285156 L 567.328125 170.773438 L 498.992188 239.058594 C 496.078125 241.976562 491.34375 241.976562 488.433594 239.058594 L 451.949219 202.605469 L 335.75 318.734375 C 332.828125 321.640625 328.101562 321.640625 325.191406 318.734375 Z M 542.316406 303.761719 C 542.316406 290.78125 531.75 280.21875 518.75 280.21875 C 505.761719 280.21875 495.203125 290.785156 495.203125 303.761719 C 495.203125 316.746094 505.761719 327.304688 518.75 327.304688 C 531.75 327.304688 542.316406 316.746094 542.316406 303.761719 Z M 480.269531 303.761719 C 480.269531 324.972656 497.53125 342.226562 518.75 342.226562 C 539.980469 342.226562 557.242188 324.972656 557.242188 303.761719 C 557.242188 282.558594 539.980469 265.296875 518.75 265.296875 C 497.53125 265.296875 480.269531 282.558594 480.269531 303.761719 Z M 633.21875 305.8125 C 635.003906 303.636719 635.816406 300.886719 635.539062 298.050781 C 634.617188 288.605469 622.707031 285.222656 616.828125 292.40625 L 553.492188 369.730469 C 544.820312 380.328125 533.003906 385.917969 519.308594 385.917969 L 518.203125 385.917969 C 504.503906 385.917969 492.691406 380.328125 484.023438 369.730469 L 420.6875 292.40625 C 418.90625 290.230469 416.363281 288.882812 413.539062 288.59375 C 403.933594 287.691406 398.472656 298.714844 404.292969 305.8125 L 467.660156 383.179688 C 475.824219 393.148438 479.78125 404.246094 479.78125 417.128906 L 479.78125 615.277344 C 479.78125 617.042969 481.214844 618.46875 482.976562 618.46875 L 511.285156 618.46875 L 511.285156 473.875 C 511.285156 469.757812 514.628906 466.417969 518.75 466.417969 C 522.882812 466.417969 526.210938 469.757812 526.210938 473.875 L 526.210938 618.472656 L 554.535156 618.472656 C 556.296875 618.472656 557.71875 617.042969 557.71875 615.277344 L 557.71875 417.128906 C 557.71875 404.246094 561.6875 393.148438 569.851562 383.179688 Z M 650.402344 296.574219 C 648.136719 273.898438 619.539062 265.535156 605.273438 282.953125 L 541.929688 360.285156 C 535.5625 368.058594 528.039062 370.992188 518.203125 370.992188 C 509.007812 370.992188 501.402344 367.390625 495.578125 360.285156 L 432.238281 282.953125 C 417.949219 265.515625 389.363281 273.929688 387.109375 296.574219 C 386.433594 303.367188 388.4375 310 392.734375 315.261719 L 456.097656 392.632812 C 462.070312 399.921875 464.847656 407.710938 464.847656 417.128906 L 464.847656 615.277344 C 464.847656 625.265625 472.980469 633.390625 482.976562 633.390625 L 554.535156 633.390625 C 564.527344 633.390625 572.652344 625.265625 572.652344 615.277344 L 572.652344 417.128906 C 572.652344 407.710938 575.4375 399.917969 581.410156 392.632812 L 644.777344 315.261719 C 649.074219 310 651.078125 303.367188 650.402344 296.574219 Z M 650.402344 296.574219 "/></g></g></svg>