<svg xmlns="http://www.w3.org/2000/svg" xmlns:xlink="http://www.w3.org/1999/xlink" width="80" zoomAndPan="magnify" viewBox="0 0 60 60" height="80" preserveAspectRatio="xMidYMid meet" version="1.0"><defs><filter x="0%" y="0%" width="100%" height="100%" id="814a0625b8"><feColorMatrix values="0 0 0 0 1 0 0 0 0 1 0 0 0 0 1 0 0 0 1 0" color-interpolation-filters="sRGB"/></filter><g/><clipPath id="7eef92f1f9"><path d="M 3.601562 2.4375 L 56.101562 2.4375 L 56.101562 42.1875 L 3.601562 42.1875 Z M 3.601562 2.4375 " clip-rule="nonzero"/></clipPath><mask id="85cd56626f"><g filter="url(#814a0625b8)"><rect x="-6" width="72" fill="#000000" y="-6" height="72" fill-opacity="0.86"/></g></mask><clipPath id="8d93cd4bbd"><path d="M 1 0.398438 L 56.839844 0.398438 L 56.839844 2.800781 L 1 2.800781 Z M 1 0.398438 " clip-rule="nonzero"/></clipPath><clipPath id="587474a8d8"><rect x="0" width="57" y="0" height="3"/></clipPath></defs><g clip-path="url(#7eef92f1f9)"><path fill="#ffffff" d="M 55.511719 36.09375 C 55.511719 36.089844 55.511719 36.089844 55.511719 36.09375 C 55.511719 36.089844 55.511719 36.089844 55.511719 36.089844 L 54.960938 32.628906 L 50.484375 4.4375 C 50.464844 4.320312 50.398438 4.210938 50.300781 4.140625 C 50.203125 4.066406 50.085938 4.039062 49.960938 4.058594 L 42.261719 5.28125 C 42.011719 5.320312 41.839844 5.554688 41.878906 5.804688 L 42.929688 12.414062 L 35.179688 12.414062 L 35.179688 2.84375 C 35.179688 2.589844 34.972656 2.386719 34.71875 2.386719 L 21.945312 2.386719 C 21.691406 2.386719 21.484375 2.589844 21.484375 2.84375 L 21.484375 8.199219 L 9.3125 6.410156 C 9.066406 6.382812 8.828125 6.550781 8.792969 6.800781 L 8.027344 12.019531 C 8.027344 12.023438 8.023438 12.023438 8.023438 12.023438 C 8.023438 12.027344 8.027344 12.027344 8.027344 12.03125 L 7.53125 15.398438 C 7.53125 15.398438 7.53125 15.402344 7.53125 15.402344 L 5.195312 31.308594 L 4.757812 34.265625 C 4.757812 34.269531 4.757812 34.269531 4.757812 34.269531 L 3.933594 39.878906 C 3.914062 39.996094 3.945312 40.121094 4.019531 40.21875 C 4.089844 40.316406 4.203125 40.382812 4.320312 40.398438 L 17.015625 42.265625 C 17.039062 42.265625 17.0625 42.269531 17.082031 42.269531 C 17.308594 42.269531 17.503906 42.105469 17.535156 41.875 L 18.335938 36.425781 C 18.335938 36.425781 18.339844 36.421875 18.339844 36.421875 C 18.339844 36.417969 18.339844 36.417969 18.339844 36.417969 L 18.785156 33.367188 C 18.785156 33.363281 18.789062 33.363281 18.789062 33.363281 C 18.789062 33.363281 18.789062 33.363281 18.789062 33.359375 L 21.101562 17.597656 C 21.101562 17.597656 21.105469 17.597656 21.105469 17.59375 C 21.105469 17.59375 21.101562 17.59375 21.105469 17.589844 L 21.484375 15.007812 L 21.484375 41.722656 C 21.484375 41.976562 21.691406 42.183594 21.945312 42.183594 L 43.398438 42.183594 C 43.652344 42.183594 43.859375 41.976562 43.859375 41.722656 L 43.859375 18.257812 L 46.359375 34.019531 C 46.359375 34.019531 46.359375 34.019531 46.359375 34.023438 L 47.640625 42.070312 C 47.660156 42.1875 47.726562 42.296875 47.824219 42.367188 C 47.902344 42.425781 47.996094 42.457031 48.09375 42.457031 C 48.117188 42.457031 48.140625 42.453125 48.164062 42.449219 L 55.859375 41.226562 C 56.113281 41.1875 56.28125 40.953125 56.242188 40.703125 Z M 20.265625 16.996094 L 8.503906 15.09375 L 8.867188 12.621094 L 20.640625 14.453125 Z M 17.5 35.824219 L 5.730469 33.957031 L 6.035156 31.898438 L 17.816406 33.679688 Z M 17.949219 32.773438 L 6.167969 30.992188 L 8.371094 16 L 20.132812 17.902344 Z M 35.179688 21.226562 L 42.9375 21.226562 L 42.9375 23.878906 L 35.179688 23.878906 Z M 34.261719 12.875 L 34.261719 30.191406 L 22.402344 30.191406 L 22.402344 9.609375 L 34.261719 9.609375 Z M 34.261719 8.691406 L 22.402344 8.691406 L 22.402344 7.324219 L 34.261719 7.324219 Z M 22.402344 31.109375 L 34.261719 31.109375 L 34.261719 34.324219 L 22.402344 34.324219 Z M 35.179688 24.796875 L 42.9375 24.796875 L 42.9375 37.863281 L 35.179688 37.863281 Z M 42.9375 13.335938 L 42.9375 20.308594 L 35.179688 20.308594 L 35.179688 13.335938 Z M 34.261719 3.304688 L 34.261719 6.40625 L 22.402344 6.40625 L 22.402344 3.304688 Z M 9.632812 7.386719 L 21.421875 9.117188 L 20.773438 13.542969 L 8.996094 11.710938 Z M 16.695312 41.289062 L 4.90625 39.558594 L 5.597656 34.863281 L 17.367188 36.730469 Z M 22.402344 35.242188 L 34.261719 35.242188 L 34.261719 41.265625 L 22.402344 41.265625 Z M 35.179688 41.265625 L 35.179688 38.78125 L 42.9375 38.78125 L 42.9375 41.265625 Z M 47.339844 34.328125 L 54.125 33.226562 L 54.535156 35.804688 L 47.769531 37.050781 Z M 44.367188 15.601562 L 51.136719 14.398438 L 53.984375 32.324219 L 47.195312 33.421875 Z M 43.867188 12.460938 L 50.636719 11.242188 L 50.992188 13.492188 L 44.222656 14.695312 Z M 49.648438 5.039062 L 50.488281 10.332031 L 43.722656 11.554688 L 42.855469 6.113281 Z M 48.472656 41.46875 L 47.917969 37.957031 L 54.679688 36.710938 L 55.265625 40.390625 Z M 48.472656 41.46875 " fill-opacity="1" fill-rule="nonzero"/></g><g mask="url(#85cd56626f)"><g transform="matrix(1, 0, 0, 1, 1, 44)"><g clip-path="url(#587474a8d8)"><g clip-path="url(#8d93cd4bbd)"><path stroke-linecap="butt" transform="matrix(0.75, 0, 0, 0.75, 2.6008, 0.408203)" fill="none" stroke-linejoin="miter" d="M 0.00101665 1.502604 L 70.396853 1.502604 " stroke="#ffffff" stroke-width="3" stroke-opacity="1" stroke-miterlimit="4"/></g></g></g></g><g fill="#ffffff" fill-opacity="1"><g transform="translate(1.121092, 57.000715)"><g><path d="M 4.03125 -0.640625 L 0.609375 0.890625 L 0.484375 0.84375 L 0.546875 -0.453125 L 1.78125 -0.6875 L 1.78125 -0.71875 C 1.445312 -0.75 1.15625 -0.890625 0.90625 -1.140625 C 0.664062 -1.398438 0.546875 -1.71875 0.546875 -2.09375 C 0.546875 -2.375 0.613281 -2.640625 0.75 -2.890625 C 0.882812 -3.148438 1.066406 -3.382812 1.296875 -3.59375 C 1.535156 -3.800781 1.796875 -3.960938 2.078125 -4.078125 C 2.359375 -4.191406 2.640625 -4.25 2.921875 -4.25 C 3.203125 -4.25 3.441406 -4.195312 3.640625 -4.09375 C 3.847656 -3.988281 3.960938 -3.875 3.984375 -3.75 C 3.960938 -3.6875 3.914062 -3.582031 3.84375 -3.4375 C 3.78125 -3.289062 3.710938 -3.144531 3.640625 -3 C 3.578125 -2.863281 3.519531 -2.765625 3.46875 -2.703125 L 3.34375 -2.671875 C 3.09375 -2.910156 2.800781 -3.03125 2.46875 -3.03125 C 2.144531 -3.03125 1.878906 -2.9375 1.671875 -2.75 C 1.472656 -2.5625 1.375 -2.378906 1.375 -2.203125 C 1.394531 -2.023438 1.492188 -1.878906 1.671875 -1.765625 C 1.847656 -1.660156 2.023438 -1.613281 2.203125 -1.625 L 4.03125 -1.734375 C 4.101562 -1.742188 4.164062 -1.734375 4.21875 -1.703125 C 4.28125 -1.679688 4.304688 -1.648438 4.296875 -1.609375 Z M 4.03125 -0.640625 "/></g></g></g><g fill="#ffffff" fill-opacity="1"><g transform="translate(5.8971, 57.000715)"><g><path d="M 1.078125 -0.328125 L 0.9375 -0.328125 L 0.484375 -8.46875 L 2.0625 -8.9375 L 1.84375 -2.015625 Z M 1.078125 -0.328125 "/></g></g></g><g fill="#ffffff" fill-opacity="1"><g transform="translate(8.44111, 57.000715)"><g><path d="M 1.15625 2.28125 L 0 1.25 L 0 1.0625 C 0.207031 1.0625 0.4375 1 0.6875 0.875 C 0.945312 0.757812 1.203125 0.597656 1.453125 0.390625 C 1.710938 0.179688 1.9375 -0.0546875 2.125 -0.328125 C 2.320312 -0.597656 2.46875 -0.882812 2.5625 -1.1875 C 2.664062 -1.5 2.6875 -1.8125 2.625 -2.125 L 2.09375 -4.875 L 3.6875 -5.75 L 3.640625 -2.609375 C 3.640625 -2.222656 3.6875 -1.925781 3.78125 -1.71875 C 3.882812 -1.519531 4.007812 -1.390625 4.15625 -1.328125 C 4.300781 -1.265625 4.441406 -1.234375 4.578125 -1.234375 C 4.640625 -1.234375 4.691406 -1.164062 4.734375 -1.03125 C 4.785156 -0.894531 4.8125 -0.757812 4.8125 -0.625 C 4.8125 -0.476562 4.785156 -0.335938 4.734375 -0.203125 C 4.691406 -0.0664062 4.640625 0 4.578125 0 C 4.296875 0 4.066406 -0.0625 3.890625 -0.1875 C 3.710938 -0.3125 3.582031 -0.445312 3.5 -0.59375 C 3.34375 0.125 3.046875 0.742188 2.609375 1.265625 C 2.179688 1.785156 1.695312 2.125 1.15625 2.28125 Z M 1.15625 2.28125 "/></g></g></g><g fill="#ffffff" fill-opacity="1"><g transform="translate(13.013116, 57.000715)"><g><path d="M 2.453125 -7.0625 C 2.253906 -7.0625 2.085938 -7.128906 1.953125 -7.265625 C 1.816406 -7.398438 1.75 -7.5625 1.75 -7.75 C 1.75 -7.945312 1.816406 -8.113281 1.953125 -8.25 C 2.085938 -8.382812 2.253906 -8.453125 2.453125 -8.453125 C 2.585938 -8.453125 2.710938 -8.414062 2.828125 -8.34375 C 2.941406 -8.269531 3.023438 -8.171875 3.078125 -8.046875 C 3.140625 -8.171875 3.222656 -8.269531 3.328125 -8.34375 C 3.441406 -8.414062 3.566406 -8.453125 3.703125 -8.453125 C 3.898438 -8.453125 4.066406 -8.382812 4.203125 -8.25 C 4.347656 -8.113281 4.421875 -7.945312 4.421875 -7.75 C 4.421875 -7.5625 4.347656 -7.398438 4.203125 -7.265625 C 4.066406 -7.128906 3.898438 -7.0625 3.703125 -7.0625 C 3.566406 -7.0625 3.441406 -7.097656 3.328125 -7.171875 C 3.222656 -7.253906 3.140625 -7.351562 3.078125 -7.46875 C 3.023438 -7.351562 2.941406 -7.253906 2.828125 -7.171875 C 2.710938 -7.097656 2.585938 -7.0625 2.453125 -7.0625 Z M 0 0 C -0.0507812 0 -0.101562 -0.0664062 -0.15625 -0.203125 C -0.207031 -0.335938 -0.234375 -0.476562 -0.234375 -0.625 C -0.234375 -0.769531 -0.207031 -0.90625 -0.15625 -1.03125 C -0.101562 -1.164062 -0.0507812 -1.234375 0 -1.234375 C 0.34375 -1.234375 0.664062 -1.242188 0.96875 -1.265625 C 1.269531 -1.285156 1.554688 -1.347656 1.828125 -1.453125 L 1.828125 -1.484375 C 1.628906 -1.609375 1.429688 -1.78125 1.234375 -2 C 1.046875 -2.226562 0.882812 -2.5 0.75 -2.8125 C 0.625 -3.125 0.5625 -3.46875 0.5625 -3.84375 C 0.5625 -4.351562 0.679688 -4.804688 0.921875 -5.203125 C 1.171875 -5.609375 1.492188 -5.925781 1.890625 -6.15625 C 2.296875 -6.382812 2.738281 -6.5 3.21875 -6.5 C 3.695312 -6.5 4.128906 -6.375 4.515625 -6.125 C 4.910156 -5.882812 5.222656 -5.554688 5.453125 -5.140625 C 5.679688 -4.734375 5.796875 -4.273438 5.796875 -3.765625 C 5.796875 -3.273438 5.691406 -2.828125 5.484375 -2.421875 C 5.285156 -2.023438 5 -1.691406 4.625 -1.421875 L 4.625 -1.40625 C 4.875 -1.34375 5.117188 -1.296875 5.359375 -1.265625 C 5.597656 -1.242188 5.929688 -1.234375 6.359375 -1.234375 C 6.421875 -1.234375 6.472656 -1.164062 6.515625 -1.03125 C 6.566406 -0.90625 6.59375 -0.765625 6.59375 -0.609375 C 6.59375 -0.472656 6.566406 -0.335938 6.515625 -0.203125 C 6.472656 -0.0664062 6.421875 0 6.359375 0 C 5.617188 0 5.007812 -0.0546875 4.53125 -0.171875 C 4.0625 -0.285156 3.640625 -0.429688 3.265625 -0.609375 C 2.898438 -0.484375 2.566406 -0.375 2.265625 -0.28125 C 1.972656 -0.1875 1.648438 -0.113281 1.296875 -0.0625 C 0.953125 -0.0195312 0.519531 0 0 0 Z M 3.140625 -2 C 3.410156 -2 3.65625 -2.066406 3.875 -2.203125 C 4.101562 -2.335938 4.285156 -2.515625 4.421875 -2.734375 C 4.554688 -2.953125 4.625 -3.195312 4.625 -3.46875 C 4.625 -3.738281 4.554688 -3.988281 4.421875 -4.21875 C 4.285156 -4.445312 4.109375 -4.628906 3.890625 -4.765625 C 3.671875 -4.898438 3.425781 -4.96875 3.15625 -4.96875 C 2.882812 -4.96875 2.632812 -4.898438 2.40625 -4.765625 C 2.175781 -4.628906 1.992188 -4.445312 1.859375 -4.21875 C 1.734375 -4 1.671875 -3.75 1.671875 -3.46875 C 1.671875 -3.195312 1.734375 -2.953125 1.859375 -2.734375 C 1.992188 -2.515625 2.171875 -2.335938 2.390625 -2.203125 C 2.617188 -2.066406 2.867188 -2 3.140625 -2 Z M 3.140625 -2 "/></g></g></g><g fill="#ffffff" fill-opacity="1"><g transform="translate(19.373124, 57.000715)"><g><path d="M 3.234375 -6.921875 C 3.023438 -6.921875 2.847656 -6.992188 2.703125 -7.140625 C 2.554688 -7.285156 2.484375 -7.457031 2.484375 -7.65625 C 2.484375 -7.863281 2.554688 -8.039062 2.703125 -8.1875 C 2.847656 -8.332031 3.023438 -8.40625 3.234375 -8.40625 C 3.441406 -8.40625 3.613281 -8.332031 3.75 -8.1875 C 3.882812 -8.039062 3.953125 -7.863281 3.953125 -7.65625 C 3.953125 -7.457031 3.882812 -7.285156 3.75 -7.140625 C 3.613281 -6.992188 3.441406 -6.921875 3.234375 -6.921875 Z M 0 0 C -0.0507812 0 -0.101562 -0.0664062 -0.15625 -0.203125 C -0.207031 -0.335938 -0.234375 -0.476562 -0.234375 -0.625 C -0.234375 -0.769531 -0.207031 -0.90625 -0.15625 -1.03125 C -0.101562 -1.164062 -0.0507812 -1.234375 0 -1.234375 C 0.34375 -1.234375 0.664062 -1.242188 0.96875 -1.265625 C 1.269531 -1.285156 1.554688 -1.347656 1.828125 -1.453125 L 1.828125 -1.484375 C 1.628906 -1.609375 1.429688 -1.78125 1.234375 -2 C 1.046875 -2.226562 0.882812 -2.5 0.75 -2.8125 C 0.625 -3.125 0.5625 -3.46875 0.5625 -3.84375 C 0.5625 -4.351562 0.679688 -4.804688 0.921875 -5.203125 C 1.171875 -5.609375 1.492188 -5.925781 1.890625 -6.15625 C 2.296875 -6.382812 2.738281 -6.5 3.21875 -6.5 C 3.695312 -6.5 4.128906 -6.375 4.515625 -6.125 C 4.910156 -5.882812 5.222656 -5.554688 5.453125 -5.140625 C 5.679688 -4.734375 5.796875 -4.273438 5.796875 -3.765625 C 5.796875 -3.273438 5.691406 -2.828125 5.484375 -2.421875 C 5.285156 -2.023438 5 -1.691406 4.625 -1.421875 L 4.625 -1.40625 C 4.875 -1.34375 5.117188 -1.296875 5.359375 -1.265625 C 5.597656 -1.242188 5.929688 -1.234375 6.359375 -1.234375 C 6.421875 -1.234375 6.472656 -1.164062 6.515625 -1.03125 C 6.566406 -0.90625 6.59375 -0.765625 6.59375 -0.609375 C 6.59375 -0.472656 6.566406 -0.335938 6.515625 -0.203125 C 6.472656 -0.0664062 6.421875 0 6.359375 0 C 5.617188 0 5.007812 -0.0546875 4.53125 -0.171875 C 4.0625 -0.285156 3.640625 -0.429688 3.265625 -0.609375 C 2.898438 -0.484375 2.566406 -0.375 2.265625 -0.28125 C 1.972656 -0.1875 1.648438 -0.113281 1.296875 -0.0625 C 0.953125 -0.0195312 0.519531 0 0 0 Z M 3.140625 -2 C 3.410156 -2 3.65625 -2.066406 3.875 -2.203125 C 4.101562 -2.335938 4.285156 -2.515625 4.421875 -2.734375 C 4.554688 -2.953125 4.625 -3.195312 4.625 -3.46875 C 4.625 -3.738281 4.554688 -3.988281 4.421875 -4.21875 C 4.285156 -4.445312 4.109375 -4.628906 3.890625 -4.765625 C 3.671875 -4.898438 3.425781 -4.96875 3.15625 -4.96875 C 2.882812 -4.96875 2.632812 -4.898438 2.40625 -4.765625 C 2.175781 -4.628906 1.992188 -4.445312 1.859375 -4.21875 C 1.734375 -4 1.671875 -3.75 1.671875 -3.46875 C 1.671875 -3.195312 1.734375 -2.953125 1.859375 -2.734375 C 1.992188 -2.515625 2.171875 -2.335938 2.390625 -2.203125 C 2.617188 -2.066406 2.867188 -2 3.140625 -2 Z M 3.140625 -2 "/></g></g></g><g fill="#ffffff" fill-opacity="1"><g transform="translate(25.733132, 57.000715)"><g><path d="M 0 0 C -0.0507812 0 -0.101562 -0.0664062 -0.15625 -0.203125 C -0.207031 -0.335938 -0.234375 -0.476562 -0.234375 -0.625 C -0.234375 -0.757812 -0.207031 -0.894531 -0.15625 -1.03125 C -0.101562 -1.164062 -0.0507812 -1.234375 0 -1.234375 C 0.351562 -1.234375 0.617188 -1.332031 0.796875 -1.53125 C 0.972656 -1.738281 1.050781 -2.046875 1.03125 -2.453125 L 0.796875 -8.875 L 2.40625 -8.078125 L 2.25 -2.984375 C 2.226562 -2.390625 2.148438 -1.894531 2.015625 -1.5 C 1.890625 -1.113281 1.71875 -0.8125 1.5 -0.59375 C 1.289062 -0.375 1.054688 -0.21875 0.796875 -0.125 C 0.535156 -0.0390625 0.269531 0 0 0 Z M 0 0 "/></g></g></g><g fill="#ffffff" fill-opacity="1"><g transform="translate(28.625134, 57.000715)"><g><path d="M 1.078125 -0.328125 L 0.9375 -0.328125 L 0.484375 -8.46875 L 2.0625 -8.9375 L 1.84375 -2.015625 Z M 1.078125 -0.328125 "/></g></g></g><g fill="#ffffff" fill-opacity="1"><g transform="translate(33.329148, 57.000715)"><g><path d="M 2.3125 -6.015625 C 2.132812 -6.015625 1.976562 -6.078125 1.84375 -6.203125 C 1.71875 -6.328125 1.65625 -6.476562 1.65625 -6.65625 C 1.65625 -6.84375 1.71875 -7 1.84375 -7.125 C 1.976562 -7.25 2.132812 -7.3125 2.3125 -7.3125 C 2.445312 -7.3125 2.566406 -7.273438 2.671875 -7.203125 C 2.773438 -7.140625 2.851562 -7.050781 2.90625 -6.9375 C 2.957031 -7.050781 3.035156 -7.140625 3.140625 -7.203125 C 3.253906 -7.273438 3.375 -7.3125 3.5 -7.3125 C 3.6875 -7.3125 3.84375 -7.25 3.96875 -7.125 C 4.09375 -7 4.15625 -6.84375 4.15625 -6.65625 C 4.15625 -6.476562 4.09375 -6.328125 3.96875 -6.203125 C 3.84375 -6.078125 3.6875 -6.015625 3.5 -6.015625 C 3.375 -6.015625 3.253906 -6.050781 3.140625 -6.125 C 3.035156 -6.195312 2.957031 -6.285156 2.90625 -6.390625 C 2.851562 -6.285156 2.773438 -6.195312 2.671875 -6.125 C 2.566406 -6.050781 2.445312 -6.015625 2.3125 -6.015625 Z M 6.125 0 C 5.851562 0 5.554688 -0.078125 5.234375 -0.234375 C 4.910156 -0.390625 4.664062 -0.660156 4.5 -1.046875 L 4.46875 -1.046875 C 4.332031 -0.890625 4.128906 -0.738281 3.859375 -0.59375 C 3.597656 -0.457031 3.285156 -0.378906 2.921875 -0.359375 C 2.554688 -0.347656 2.191406 -0.4375 1.828125 -0.625 C 1.472656 -0.8125 1.171875 -1.085938 0.921875 -1.453125 C 0.671875 -1.828125 0.523438 -2.273438 0.484375 -2.796875 C 0.453125 -3.273438 0.53125 -3.707031 0.71875 -4.09375 C 0.90625 -4.476562 1.160156 -4.785156 1.484375 -5.015625 C 1.816406 -5.242188 2.179688 -5.359375 2.578125 -5.359375 C 2.828125 -5.359375 3.039062 -5.328125 3.21875 -5.265625 C 3.394531 -5.210938 3.570312 -5.117188 3.75 -4.984375 L 3.640625 -5.5625 L 5.1875 -5.96875 L 5.171875 -2.515625 C 5.171875 -2.203125 5.21875 -1.945312 5.3125 -1.75 C 5.414062 -1.5625 5.539062 -1.425781 5.6875 -1.34375 C 5.84375 -1.269531 5.988281 -1.234375 6.125 -1.234375 C 6.195312 -1.234375 6.253906 -1.164062 6.296875 -1.03125 C 6.347656 -0.894531 6.375 -0.757812 6.375 -0.625 C 6.375 -0.476562 6.347656 -0.335938 6.296875 -0.203125 C 6.253906 -0.0664062 6.195312 0 6.125 0 Z M 3.046875 -1.78125 C 3.296875 -1.820312 3.507812 -1.914062 3.6875 -2.0625 C 3.875 -2.21875 4.015625 -2.40625 4.109375 -2.625 C 4.203125 -2.851562 4.226562 -3.085938 4.1875 -3.328125 C 4.144531 -3.578125 4.046875 -3.796875 3.890625 -3.984375 C 3.742188 -4.171875 3.5625 -4.304688 3.34375 -4.390625 C 3.125 -4.484375 2.890625 -4.507812 2.640625 -4.46875 C 2.398438 -4.4375 2.1875 -4.34375 2 -4.1875 C 1.8125 -4.03125 1.671875 -3.84375 1.578125 -3.625 C 1.492188 -3.40625 1.46875 -3.171875 1.5 -2.921875 C 1.539062 -2.679688 1.632812 -2.46875 1.78125 -2.28125 C 1.9375 -2.09375 2.125 -1.953125 2.34375 -1.859375 C 2.5625 -1.773438 2.796875 -1.75 3.046875 -1.78125 Z M 3.046875 -1.78125 "/></g></g></g><g fill="#ffffff" fill-opacity="1"><g transform="translate(39.461155, 57.000715)"><g><path d="M 0 0 C -0.0507812 0 -0.101562 -0.0664062 -0.15625 -0.203125 C -0.207031 -0.335938 -0.234375 -0.476562 -0.234375 -0.625 C -0.234375 -0.757812 -0.207031 -0.894531 -0.15625 -1.03125 C -0.113281 -1.164062 -0.0625 -1.234375 0 -1.234375 C 0.15625 -1.234375 0.3125 -1.273438 0.46875 -1.359375 C 0.632812 -1.453125 0.769531 -1.585938 0.875 -1.765625 C 0.988281 -1.941406 1.035156 -2.15625 1.015625 -2.40625 L 0.890625 -4.3125 L 2.46875 -4.890625 L 2.453125 -2.921875 C 2.453125 -2.359375 2.566406 -1.9375 2.796875 -1.65625 C 3.023438 -1.375 3.304688 -1.234375 3.640625 -1.234375 C 3.703125 -1.234375 3.753906 -1.164062 3.796875 -1.03125 C 3.847656 -0.894531 3.875 -0.757812 3.875 -0.625 C 3.875 -0.476562 3.847656 -0.335938 3.796875 -0.203125 C 3.753906 -0.0664062 3.703125 0 3.640625 0 C 3.390625 0 3.140625 -0.046875 2.890625 -0.140625 C 2.648438 -0.234375 2.4375 -0.347656 2.25 -0.484375 C 2.070312 -0.628906 1.9375 -0.785156 1.84375 -0.953125 C 1.59375 -0.660156 1.332031 -0.425781 1.0625 -0.25 C 0.800781 -0.0820312 0.445312 0 0 0 Z M 1.8125 1.75 C 1.613281 1.75 1.4375 1.675781 1.28125 1.53125 C 1.132812 1.382812 1.0625 1.210938 1.0625 1.015625 C 1.0625 0.804688 1.132812 0.628906 1.28125 0.484375 C 1.4375 0.347656 1.613281 0.28125 1.8125 0.28125 C 2.019531 0.28125 2.191406 0.347656 2.328125 0.484375 C 2.472656 0.628906 2.546875 0.804688 2.546875 1.015625 C 2.546875 1.210938 2.472656 1.382812 2.328125 1.53125 C 2.191406 1.675781 2.019531 1.75 1.8125 1.75 Z M 1.8125 1.75 "/></g></g></g><g fill="#ffffff" fill-opacity="1"><g transform="translate(43.09716, 57.000715)"><g><path d="M 1.1875 -5.515625 C 1 -5.515625 0.835938 -5.582031 0.703125 -5.71875 C 0.566406 -5.863281 0.5 -6.03125 0.5 -6.21875 C 0.5 -6.40625 0.566406 -6.566406 0.703125 -6.703125 C 0.835938 -6.835938 1 -6.90625 1.1875 -6.90625 C 1.332031 -6.90625 1.457031 -6.867188 1.5625 -6.796875 C 1.675781 -6.722656 1.765625 -6.625 1.828125 -6.5 C 1.878906 -6.625 1.960938 -6.722656 2.078125 -6.796875 C 2.191406 -6.867188 2.316406 -6.90625 2.453125 -6.90625 C 2.648438 -6.90625 2.816406 -6.835938 2.953125 -6.703125 C 3.085938 -6.566406 3.15625 -6.40625 3.15625 -6.21875 C 3.15625 -6.03125 3.085938 -5.863281 2.953125 -5.71875 C 2.816406 -5.582031 2.648438 -5.515625 2.453125 -5.515625 C 2.316406 -5.515625 2.191406 -5.554688 2.078125 -5.640625 C 1.960938 -5.722656 1.878906 -5.820312 1.828125 -5.9375 C 1.765625 -5.820312 1.675781 -5.722656 1.5625 -5.640625 C 1.457031 -5.554688 1.332031 -5.515625 1.1875 -5.515625 Z M 0 0 C -0.0507812 0 -0.101562 -0.0664062 -0.15625 -0.203125 C -0.207031 -0.335938 -0.234375 -0.476562 -0.234375 -0.625 C -0.234375 -0.757812 -0.207031 -0.894531 -0.15625 -1.03125 C -0.113281 -1.164062 -0.0625 -1.234375 0 -1.234375 C 0.15625 -1.234375 0.3125 -1.28125 0.46875 -1.375 C 0.625 -1.46875 0.753906 -1.601562 0.859375 -1.78125 C 0.972656 -1.96875 1.023438 -2.191406 1.015625 -2.453125 L 0.875 -4.921875 L 2.46875 -4.734375 L 2.453125 -2.921875 C 2.453125 -2.359375 2.5625 -1.9375 2.78125 -1.65625 C 3 -1.375 3.285156 -1.234375 3.640625 -1.234375 C 3.703125 -1.234375 3.753906 -1.164062 3.796875 -1.03125 C 3.847656 -0.894531 3.875 -0.757812 3.875 -0.625 C 3.875 -0.476562 3.847656 -0.335938 3.796875 -0.203125 C 3.753906 -0.0664062 3.703125 0 3.640625 0 C 3.390625 0 3.140625 -0.046875 2.890625 -0.140625 C 2.648438 -0.234375 2.4375 -0.347656 2.25 -0.484375 C 2.070312 -0.628906 1.9375 -0.785156 1.84375 -0.953125 C 1.59375 -0.660156 1.332031 -0.425781 1.0625 -0.25 C 0.800781 -0.0820312 0.445312 0 0 0 Z M 0 0 "/></g></g></g><g fill="#ffffff" fill-opacity="1"><g transform="translate(46.733166, 57.000715)"><g><path d="M 0 0 C -0.0507812 0 -0.101562 -0.0664062 -0.15625 -0.203125 C -0.207031 -0.335938 -0.234375 -0.476562 -0.234375 -0.625 C -0.234375 -0.769531 -0.207031 -0.90625 -0.15625 -1.03125 C -0.101562 -1.164062 -0.0507812 -1.234375 0 -1.234375 C 0.28125 -1.234375 0.59375 -1.273438 0.9375 -1.359375 C 1.289062 -1.441406 1.628906 -1.566406 1.953125 -1.734375 C 2.285156 -1.898438 2.5625 -2.109375 2.78125 -2.359375 C 3 -2.617188 3.109375 -2.914062 3.109375 -3.25 C 3.109375 -3.507812 3.003906 -3.75 2.796875 -3.96875 C 2.597656 -4.195312 2.316406 -4.375 1.953125 -4.5 C 1.585938 -4.625 1.164062 -4.648438 0.6875 -4.578125 L 0.1875 -5.40625 L 4.46875 -9.328125 L 5.390625 -7.921875 L 1.53125 -5.390625 C 1.90625 -5.398438 2.273438 -5.359375 2.640625 -5.265625 C 3.003906 -5.171875 3.335938 -5.023438 3.640625 -4.828125 C 3.953125 -4.640625 4.195312 -4.40625 4.375 -4.125 C 4.5625 -3.84375 4.65625 -3.523438 4.65625 -3.171875 C 4.65625 -2.835938 4.601562 -2.546875 4.5 -2.296875 C 4.53125 -2.023438 4.601562 -1.8125 4.71875 -1.65625 C 4.84375 -1.5 4.976562 -1.390625 5.125 -1.328125 C 5.28125 -1.265625 5.414062 -1.234375 5.53125 -1.234375 C 5.59375 -1.234375 5.644531 -1.164062 5.6875 -1.03125 C 5.738281 -0.90625 5.765625 -0.769531 5.765625 -0.625 C 5.765625 -0.476562 5.738281 -0.335938 5.6875 -0.203125 C 5.644531 -0.0664062 5.59375 0 5.53125 0 C 5.289062 0 5.0625 -0.0625 4.84375 -0.1875 C 4.625 -0.320312 4.4375 -0.5 4.28125 -0.71875 C 4.132812 -0.945312 4.046875 -1.207031 4.015625 -1.5 C 3.703125 -1.144531 3.304688 -0.851562 2.828125 -0.625 C 2.359375 -0.40625 1.875 -0.242188 1.375 -0.140625 C 0.875 -0.046875 0.414062 0 0 0 Z M 0 0 "/></g></g></g><g fill="#ffffff" fill-opacity="1"><g transform="translate(52.265182, 57.000715)"><g><path d="M 3.515625 0.171875 C 3.085938 0.179688 2.6875 0.101562 2.3125 -0.0625 C 1.945312 -0.226562 1.632812 -0.457031 1.375 -0.75 C 1.25 -0.519531 1.066406 -0.335938 0.828125 -0.203125 C 0.597656 -0.0664062 0.320312 0 0 0 C -0.0507812 0 -0.101562 -0.0664062 -0.15625 -0.203125 C -0.207031 -0.335938 -0.234375 -0.476562 -0.234375 -0.625 C -0.234375 -0.757812 -0.207031 -0.894531 -0.15625 -1.03125 C -0.101562 -1.164062 -0.0507812 -1.234375 0 -1.234375 C 0.195312 -1.234375 0.347656 -1.320312 0.453125 -1.5 C 0.554688 -1.6875 0.625 -1.898438 0.65625 -2.140625 C 0.695312 -2.390625 0.71875 -2.613281 0.71875 -2.8125 C 0.71875 -3.332031 0.832031 -3.804688 1.0625 -4.234375 C 1.300781 -4.660156 1.613281 -5.003906 2 -5.265625 C 2.394531 -5.523438 2.832031 -5.664062 3.3125 -5.6875 C 3.832031 -5.707031 4.296875 -5.585938 4.703125 -5.328125 C 5.117188 -5.078125 5.453125 -4.722656 5.703125 -4.265625 C 5.953125 -3.816406 6.082031 -3.300781 6.09375 -2.71875 C 6.113281 -2.394531 6.070312 -2.066406 5.96875 -1.734375 C 5.875 -1.398438 5.722656 -1.09375 5.515625 -0.8125 C 5.304688 -0.53125 5.035156 -0.300781 4.703125 -0.125 C 4.378906 0.0507812 3.984375 0.148438 3.515625 0.171875 Z M 3.203125 -1.234375 C 3.484375 -1.242188 3.738281 -1.316406 3.96875 -1.453125 C 4.195312 -1.597656 4.375 -1.785156 4.5 -2.015625 C 4.632812 -2.242188 4.695312 -2.5 4.6875 -2.78125 C 4.6875 -3.0625 4.613281 -3.316406 4.46875 -3.546875 C 4.320312 -3.785156 4.128906 -3.96875 3.890625 -4.09375 C 3.660156 -4.226562 3.40625 -4.289062 3.125 -4.28125 C 2.851562 -4.28125 2.601562 -4.207031 2.375 -4.0625 C 2.15625 -3.914062 1.976562 -3.722656 1.84375 -3.484375 C 1.707031 -3.242188 1.644531 -2.988281 1.65625 -2.71875 C 1.664062 -2.4375 1.738281 -2.179688 1.875 -1.953125 C 2.019531 -1.734375 2.207031 -1.554688 2.4375 -1.421875 C 2.664062 -1.285156 2.921875 -1.222656 3.203125 -1.234375 Z M 3.203125 -1.234375 "/></g></g></g></svg>