<svg xmlns="http://www.w3.org/2000/svg" xmlns:xlink="http://www.w3.org/1999/xlink" width="80" zoomAndPan="magnify" viewBox="0 0 60 60" height="80" preserveAspectRatio="xMidYMid meet" version="1.0"><defs><filter x="0%" y="0%" width="100%" height="100%" id="eeb2b36765"><feColorMatrix values="0 0 0 0 1 0 0 0 0 1 0 0 0 0 1 0 0 0 1 0" color-interpolation-filters="sRGB"/></filter><g/><mask id="51e45a6566"><g filter="url(#eeb2b36765)"><rect x="-6" width="72" fill="#000000" y="-6" height="72" fill-opacity="0.86"/></g></mask><clipPath id="735eb7ca1f"><path d="M 0.359375 0.398438 L 41.878906 0.398438 L 41.878906 2.320312 L 0.359375 2.320312 Z M 0.359375 0.398438 " clip-rule="nonzero"/></clipPath><clipPath id="74699110cb"><rect x="0" width="42" y="0" height="3"/></clipPath><clipPath id="d31844186b"><path d="M 11.066406 8.960938 L 48.566406 8.960938 L 48.566406 37.460938 L 11.066406 37.460938 Z M 11.066406 8.960938 " clip-rule="nonzero"/></clipPath></defs><g mask="url(#51e45a6566)"><g transform="matrix(1, 0, 0, 1, 9, 38)"><g clip-path="url(#74699110cb)"><g clip-path="url(#735eb7ca1f)"><path stroke-linecap="butt" transform="matrix(0.75, 0, 0, 0.75, 1.168666, 0.6338)" fill="none" stroke-linejoin="miter" d="M -0.000929208 0.998683 L 52.88449 0.998683 " stroke="#000000" stroke-width="2" stroke-opacity="1" stroke-miterlimit="4"/></g></g></g></g><g fill="#000000" fill-opacity="1"><g transform="translate(8.305885, 47.998305)"><g><path d="M 3.03125 -0.484375 L 0.453125 0.671875 L 0.359375 0.625 L 0.421875 -0.34375 L 1.328125 -0.515625 L 1.328125 -0.546875 C 1.085938 -0.566406 0.875 -0.671875 0.6875 -0.859375 C 0.507812 -1.054688 0.421875 -1.296875 0.421875 -1.578125 C 0.421875 -1.785156 0.46875 -1.984375 0.5625 -2.171875 C 0.664062 -2.367188 0.804688 -2.546875 0.984375 -2.703125 C 1.160156 -2.859375 1.351562 -2.976562 1.5625 -3.0625 C 1.769531 -3.144531 1.984375 -3.1875 2.203125 -3.1875 C 2.410156 -3.1875 2.585938 -3.144531 2.734375 -3.0625 C 2.890625 -2.988281 2.976562 -2.910156 3 -2.828125 C 2.976562 -2.773438 2.941406 -2.691406 2.890625 -2.578125 C 2.847656 -2.472656 2.796875 -2.363281 2.734375 -2.25 C 2.679688 -2.144531 2.640625 -2.070312 2.609375 -2.03125 L 2.5 -2.015625 C 2.320312 -2.191406 2.109375 -2.28125 1.859375 -2.28125 C 1.609375 -2.28125 1.40625 -2.207031 1.25 -2.0625 C 1.101562 -1.925781 1.03125 -1.789062 1.03125 -1.65625 C 1.050781 -1.519531 1.125 -1.410156 1.25 -1.328125 C 1.382812 -1.242188 1.519531 -1.207031 1.65625 -1.21875 L 3.03125 -1.3125 C 3.082031 -1.3125 3.128906 -1.300781 3.171875 -1.28125 C 3.222656 -1.257812 3.242188 -1.234375 3.234375 -1.203125 Z M 3.03125 -0.484375 "/></g></g></g><g fill="#000000" fill-opacity="1"><g transform="translate(11.893668, 47.998305)"><g><path d="M 0.8125 -0.25 L 0.703125 -0.25 L 0.359375 -6.359375 L 1.546875 -6.71875 L 1.375 -1.515625 Z M 0.8125 -0.25 "/></g></g></g><g fill="#000000" fill-opacity="1"><g transform="translate(13.804753, 47.998305)"><g><path d="M 0.859375 1.71875 L 0 0.9375 L 0 0.796875 C 0.15625 0.796875 0.328125 0.75 0.515625 0.65625 C 0.710938 0.5625 0.90625 0.4375 1.09375 0.28125 C 1.28125 0.125 1.445312 -0.0507812 1.59375 -0.25 C 1.75 -0.445312 1.859375 -0.660156 1.921875 -0.890625 C 1.992188 -1.128906 2.007812 -1.363281 1.96875 -1.59375 L 1.5625 -3.65625 L 2.765625 -4.3125 L 2.734375 -1.96875 C 2.734375 -1.675781 2.769531 -1.453125 2.84375 -1.296875 C 2.914062 -1.148438 3.003906 -1.050781 3.109375 -1 C 3.222656 -0.945312 3.332031 -0.921875 3.4375 -0.921875 C 3.476562 -0.921875 3.515625 -0.867188 3.546875 -0.765625 C 3.585938 -0.671875 3.609375 -0.570312 3.609375 -0.46875 C 3.609375 -0.363281 3.585938 -0.257812 3.546875 -0.15625 C 3.515625 -0.0507812 3.476562 0 3.4375 0 C 3.226562 0 3.054688 -0.046875 2.921875 -0.140625 C 2.785156 -0.234375 2.6875 -0.335938 2.625 -0.453125 C 2.507812 0.0976562 2.289062 0.566406 1.96875 0.953125 C 1.644531 1.335938 1.273438 1.59375 0.859375 1.71875 Z M 0.859375 1.71875 "/></g></g></g><g fill="#000000" fill-opacity="1"><g transform="translate(17.239288, 47.998305)"><g><path d="M 1.84375 -5.3125 C 1.695312 -5.3125 1.570312 -5.359375 1.46875 -5.453125 C 1.363281 -5.554688 1.3125 -5.679688 1.3125 -5.828125 C 1.3125 -5.972656 1.363281 -6.097656 1.46875 -6.203125 C 1.570312 -6.304688 1.695312 -6.359375 1.84375 -6.359375 C 1.945312 -6.359375 2.039062 -6.328125 2.125 -6.265625 C 2.207031 -6.210938 2.269531 -6.140625 2.3125 -6.046875 C 2.351562 -6.140625 2.414062 -6.210938 2.5 -6.265625 C 2.582031 -6.328125 2.675781 -6.359375 2.78125 -6.359375 C 2.925781 -6.359375 3.050781 -6.304688 3.15625 -6.203125 C 3.257812 -6.097656 3.3125 -5.972656 3.3125 -5.828125 C 3.3125 -5.679688 3.257812 -5.554688 3.15625 -5.453125 C 3.050781 -5.359375 2.925781 -5.3125 2.78125 -5.3125 C 2.675781 -5.3125 2.582031 -5.335938 2.5 -5.390625 C 2.414062 -5.453125 2.351562 -5.523438 2.3125 -5.609375 C 2.269531 -5.523438 2.207031 -5.453125 2.125 -5.390625 C 2.039062 -5.335938 1.945312 -5.3125 1.84375 -5.3125 Z M 0 0 C -0.0390625 0 -0.0820312 -0.0507812 -0.125 -0.15625 C -0.164062 -0.257812 -0.1875 -0.363281 -0.1875 -0.46875 C -0.1875 -0.570312 -0.164062 -0.671875 -0.125 -0.765625 C -0.0820312 -0.867188 -0.0390625 -0.921875 0 -0.921875 C 0.257812 -0.921875 0.5 -0.925781 0.71875 -0.9375 C 0.945312 -0.957031 1.164062 -1.007812 1.375 -1.09375 L 1.375 -1.125 C 1.21875 -1.207031 1.066406 -1.332031 0.921875 -1.5 C 0.785156 -1.675781 0.664062 -1.878906 0.5625 -2.109375 C 0.46875 -2.347656 0.421875 -2.609375 0.421875 -2.890625 C 0.421875 -3.273438 0.507812 -3.613281 0.6875 -3.90625 C 0.875 -4.207031 1.117188 -4.445312 1.421875 -4.625 C 1.722656 -4.800781 2.054688 -4.890625 2.421875 -4.890625 C 2.773438 -4.890625 3.097656 -4.796875 3.390625 -4.609375 C 3.691406 -4.429688 3.925781 -4.1875 4.09375 -3.875 C 4.269531 -3.5625 4.359375 -3.210938 4.359375 -2.828125 C 4.359375 -2.453125 4.28125 -2.113281 4.125 -1.8125 C 3.96875 -1.519531 3.75 -1.273438 3.46875 -1.078125 L 3.46875 -1.0625 C 3.664062 -1.007812 3.851562 -0.972656 4.03125 -0.953125 C 4.207031 -0.929688 4.457031 -0.921875 4.78125 -0.921875 C 4.820312 -0.921875 4.859375 -0.867188 4.890625 -0.765625 C 4.929688 -0.671875 4.953125 -0.566406 4.953125 -0.453125 C 4.953125 -0.359375 4.929688 -0.257812 4.890625 -0.15625 C 4.859375 -0.0507812 4.820312 0 4.78125 0 C 4.226562 0 3.769531 -0.0390625 3.40625 -0.125 C 3.050781 -0.21875 2.734375 -0.328125 2.453125 -0.453125 C 2.179688 -0.359375 1.929688 -0.273438 1.703125 -0.203125 C 1.484375 -0.140625 1.242188 -0.0859375 0.984375 -0.046875 C 0.722656 -0.015625 0.394531 0 0 0 Z M 2.359375 -1.5 C 2.566406 -1.5 2.753906 -1.546875 2.921875 -1.640625 C 3.085938 -1.742188 3.21875 -1.878906 3.3125 -2.046875 C 3.414062 -2.210938 3.46875 -2.398438 3.46875 -2.609375 C 3.46875 -2.804688 3.414062 -2.988281 3.3125 -3.15625 C 3.21875 -3.332031 3.085938 -3.472656 2.921875 -3.578125 C 2.753906 -3.679688 2.570312 -3.734375 2.375 -3.734375 C 2.164062 -3.734375 1.972656 -3.679688 1.796875 -3.578125 C 1.628906 -3.472656 1.492188 -3.335938 1.390625 -3.171875 C 1.296875 -3.003906 1.25 -2.816406 1.25 -2.609375 C 1.25 -2.398438 1.296875 -2.210938 1.390625 -2.046875 C 1.492188 -1.878906 1.628906 -1.742188 1.796875 -1.640625 C 1.972656 -1.546875 2.160156 -1.5 2.359375 -1.5 Z M 2.359375 -1.5 "/></g></g></g><g fill="#000000" fill-opacity="1"><g transform="translate(22.016987, 47.998305)"><g><path d="M 2.421875 -5.203125 C 2.273438 -5.203125 2.144531 -5.253906 2.03125 -5.359375 C 1.914062 -5.472656 1.859375 -5.601562 1.859375 -5.75 C 1.859375 -5.90625 1.914062 -6.035156 2.03125 -6.140625 C 2.144531 -6.253906 2.273438 -6.3125 2.421875 -6.3125 C 2.578125 -6.3125 2.707031 -6.253906 2.8125 -6.140625 C 2.914062 -6.035156 2.96875 -5.90625 2.96875 -5.75 C 2.96875 -5.601562 2.914062 -5.472656 2.8125 -5.359375 C 2.707031 -5.253906 2.578125 -5.203125 2.421875 -5.203125 Z M 0 0 C -0.0390625 0 -0.0820312 -0.0507812 -0.125 -0.15625 C -0.164062 -0.257812 -0.1875 -0.363281 -0.1875 -0.46875 C -0.1875 -0.570312 -0.164062 -0.671875 -0.125 -0.765625 C -0.0820312 -0.867188 -0.0390625 -0.921875 0 -0.921875 C 0.257812 -0.921875 0.5 -0.925781 0.71875 -0.9375 C 0.945312 -0.957031 1.164062 -1.007812 1.375 -1.09375 L 1.375 -1.125 C 1.21875 -1.207031 1.066406 -1.332031 0.921875 -1.5 C 0.785156 -1.675781 0.664062 -1.878906 0.5625 -2.109375 C 0.46875 -2.347656 0.421875 -2.609375 0.421875 -2.890625 C 0.421875 -3.273438 0.507812 -3.613281 0.6875 -3.90625 C 0.875 -4.207031 1.117188 -4.445312 1.421875 -4.625 C 1.722656 -4.800781 2.054688 -4.890625 2.421875 -4.890625 C 2.773438 -4.890625 3.097656 -4.796875 3.390625 -4.609375 C 3.691406 -4.429688 3.925781 -4.1875 4.09375 -3.875 C 4.269531 -3.5625 4.359375 -3.210938 4.359375 -2.828125 C 4.359375 -2.453125 4.28125 -2.113281 4.125 -1.8125 C 3.96875 -1.519531 3.75 -1.273438 3.46875 -1.078125 L 3.46875 -1.0625 C 3.664062 -1.007812 3.851562 -0.972656 4.03125 -0.953125 C 4.207031 -0.929688 4.457031 -0.921875 4.78125 -0.921875 C 4.820312 -0.921875 4.859375 -0.867188 4.890625 -0.765625 C 4.929688 -0.671875 4.953125 -0.566406 4.953125 -0.453125 C 4.953125 -0.359375 4.929688 -0.257812 4.890625 -0.15625 C 4.859375 -0.0507812 4.820312 0 4.78125 0 C 4.226562 0 3.769531 -0.0390625 3.40625 -0.125 C 3.050781 -0.21875 2.734375 -0.328125 2.453125 -0.453125 C 2.179688 -0.359375 1.929688 -0.273438 1.703125 -0.203125 C 1.484375 -0.140625 1.242188 -0.0859375 0.984375 -0.046875 C 0.722656 -0.015625 0.394531 0 0 0 Z M 2.359375 -1.5 C 2.566406 -1.5 2.753906 -1.546875 2.921875 -1.640625 C 3.085938 -1.742188 3.21875 -1.878906 3.3125 -2.046875 C 3.414062 -2.210938 3.46875 -2.398438 3.46875 -2.609375 C 3.46875 -2.804688 3.414062 -2.988281 3.3125 -3.15625 C 3.21875 -3.332031 3.085938 -3.472656 2.921875 -3.578125 C 2.753906 -3.679688 2.570312 -3.734375 2.375 -3.734375 C 2.164062 -3.734375 1.972656 -3.679688 1.796875 -3.578125 C 1.628906 -3.472656 1.492188 -3.335938 1.390625 -3.171875 C 1.296875 -3.003906 1.25 -2.816406 1.25 -2.609375 C 1.25 -2.398438 1.296875 -2.210938 1.390625 -2.046875 C 1.492188 -1.878906 1.628906 -1.742188 1.796875 -1.640625 C 1.972656 -1.546875 2.160156 -1.5 2.359375 -1.5 Z M 2.359375 -1.5 "/></g></g></g><g fill="#000000" fill-opacity="1"><g transform="translate(26.794687, 47.998305)"><g><path d="M 0 0 C -0.0390625 0 -0.0820312 -0.0507812 -0.125 -0.15625 C -0.164062 -0.257812 -0.1875 -0.363281 -0.1875 -0.46875 C -0.1875 -0.570312 -0.164062 -0.671875 -0.125 -0.765625 C -0.0820312 -0.867188 -0.0390625 -0.921875 0 -0.921875 C 0.257812 -0.921875 0.457031 -0.992188 0.59375 -1.140625 C 0.726562 -1.296875 0.789062 -1.53125 0.78125 -1.84375 L 0.609375 -6.65625 L 1.8125 -6.0625 L 1.6875 -2.25 C 1.675781 -1.789062 1.617188 -1.414062 1.515625 -1.125 C 1.421875 -0.832031 1.289062 -0.601562 1.125 -0.4375 C 0.96875 -0.28125 0.789062 -0.164062 0.59375 -0.09375 C 0.40625 -0.03125 0.207031 0 0 0 Z M 0 0 "/></g></g></g><g fill="#000000" fill-opacity="1"><g transform="translate(28.967186, 47.998305)"><g><path d="M 0.8125 -0.25 L 0.703125 -0.25 L 0.359375 -6.359375 L 1.546875 -6.71875 L 1.375 -1.515625 Z M 0.8125 -0.25 "/></g></g></g><g fill="#000000" fill-opacity="1"><g transform="translate(32.500887, 47.998305)"><g><path d="M 1.734375 -4.515625 C 1.597656 -4.515625 1.484375 -4.5625 1.390625 -4.65625 C 1.296875 -4.757812 1.25 -4.875 1.25 -5 C 1.25 -5.144531 1.296875 -5.265625 1.390625 -5.359375 C 1.484375 -5.453125 1.597656 -5.5 1.734375 -5.5 C 1.835938 -5.5 1.925781 -5.472656 2 -5.421875 C 2.082031 -5.367188 2.144531 -5.300781 2.1875 -5.21875 C 2.226562 -5.300781 2.285156 -5.367188 2.359375 -5.421875 C 2.441406 -5.472656 2.53125 -5.5 2.625 -5.5 C 2.769531 -5.5 2.890625 -5.453125 2.984375 -5.359375 C 3.078125 -5.265625 3.125 -5.144531 3.125 -5 C 3.125 -4.875 3.078125 -4.757812 2.984375 -4.65625 C 2.890625 -4.5625 2.769531 -4.515625 2.625 -4.515625 C 2.53125 -4.515625 2.441406 -4.539062 2.359375 -4.59375 C 2.285156 -4.644531 2.226562 -4.71875 2.1875 -4.8125 C 2.144531 -4.71875 2.082031 -4.644531 2 -4.59375 C 1.925781 -4.539062 1.835938 -4.515625 1.734375 -4.515625 Z M 4.609375 0 C 4.398438 0 4.171875 -0.0546875 3.921875 -0.171875 C 3.679688 -0.296875 3.5 -0.5 3.375 -0.78125 L 3.359375 -0.78125 C 3.253906 -0.664062 3.101562 -0.550781 2.90625 -0.4375 C 2.707031 -0.332031 2.472656 -0.273438 2.203125 -0.265625 C 1.921875 -0.253906 1.644531 -0.316406 1.375 -0.453125 C 1.101562 -0.597656 0.875 -0.8125 0.6875 -1.09375 C 0.507812 -1.375 0.40625 -1.707031 0.375 -2.09375 C 0.34375 -2.457031 0.394531 -2.78125 0.53125 -3.0625 C 0.675781 -3.351562 0.875 -3.582031 1.125 -3.75 C 1.375 -3.925781 1.644531 -4.015625 1.9375 -4.015625 C 2.125 -4.015625 2.285156 -3.992188 2.421875 -3.953125 C 2.554688 -3.910156 2.691406 -3.84375 2.828125 -3.75 L 2.734375 -4.171875 L 3.890625 -4.484375 L 3.890625 -1.890625 C 3.890625 -1.648438 3.925781 -1.457031 4 -1.3125 C 4.070312 -1.175781 4.160156 -1.078125 4.265625 -1.015625 C 4.378906 -0.953125 4.492188 -0.921875 4.609375 -0.921875 C 4.648438 -0.921875 4.6875 -0.867188 4.71875 -0.765625 C 4.757812 -0.671875 4.78125 -0.570312 4.78125 -0.46875 C 4.78125 -0.363281 4.757812 -0.257812 4.71875 -0.15625 C 4.6875 -0.0507812 4.648438 0 4.609375 0 Z M 2.296875 -1.34375 C 2.472656 -1.375 2.628906 -1.445312 2.765625 -1.5625 C 2.910156 -1.675781 3.015625 -1.816406 3.078125 -1.984375 C 3.148438 -2.148438 3.171875 -2.320312 3.140625 -2.5 C 3.109375 -2.6875 3.035156 -2.847656 2.921875 -2.984375 C 2.816406 -3.128906 2.679688 -3.234375 2.515625 -3.296875 C 2.347656 -3.367188 2.171875 -3.390625 1.984375 -3.359375 C 1.804688 -3.328125 1.644531 -3.253906 1.5 -3.140625 C 1.363281 -3.023438 1.257812 -2.882812 1.1875 -2.71875 C 1.125 -2.5625 1.101562 -2.390625 1.125 -2.203125 C 1.15625 -2.015625 1.226562 -1.847656 1.34375 -1.703125 C 1.457031 -1.566406 1.597656 -1.46875 1.765625 -1.40625 C 1.929688 -1.34375 2.109375 -1.320312 2.296875 -1.34375 Z M 2.296875 -1.34375 "/></g></g></g><g fill="#000000" fill-opacity="1"><g transform="translate(37.10731, 47.998305)"><g><path d="M 0 0 C -0.0390625 0 -0.0820312 -0.0507812 -0.125 -0.15625 C -0.164062 -0.257812 -0.1875 -0.363281 -0.1875 -0.46875 C -0.1875 -0.570312 -0.164062 -0.671875 -0.125 -0.765625 C -0.09375 -0.867188 -0.0507812 -0.921875 0 -0.921875 C 0.125 -0.921875 0.242188 -0.953125 0.359375 -1.015625 C 0.484375 -1.085938 0.582031 -1.191406 0.65625 -1.328125 C 0.738281 -1.460938 0.769531 -1.625 0.75 -1.8125 L 0.671875 -3.234375 L 1.859375 -3.671875 L 1.84375 -2.203125 C 1.84375 -1.773438 1.925781 -1.453125 2.09375 -1.234375 C 2.269531 -1.023438 2.484375 -0.921875 2.734375 -0.921875 C 2.773438 -0.921875 2.8125 -0.867188 2.84375 -0.765625 C 2.882812 -0.671875 2.90625 -0.570312 2.90625 -0.46875 C 2.90625 -0.363281 2.882812 -0.257812 2.84375 -0.15625 C 2.8125 -0.0507812 2.773438 0 2.734375 0 C 2.546875 0 2.359375 -0.03125 2.171875 -0.09375 C 1.992188 -0.164062 1.832031 -0.253906 1.6875 -0.359375 C 1.550781 -0.472656 1.453125 -0.59375 1.390625 -0.71875 C 1.203125 -0.5 1.003906 -0.320312 0.796875 -0.1875 C 0.597656 -0.0625 0.332031 0 0 0 Z M 1.359375 1.3125 C 1.210938 1.3125 1.082031 1.253906 0.96875 1.140625 C 0.851562 1.035156 0.796875 0.90625 0.796875 0.75 C 0.796875 0.59375 0.851562 0.460938 0.96875 0.359375 C 1.082031 0.253906 1.210938 0.203125 1.359375 0.203125 C 1.515625 0.203125 1.644531 0.253906 1.75 0.359375 C 1.851562 0.460938 1.90625 0.59375 1.90625 0.75 C 1.90625 0.90625 1.851562 1.035156 1.75 1.140625 C 1.644531 1.253906 1.515625 1.3125 1.359375 1.3125 Z M 1.359375 1.3125 "/></g></g></g><g fill="#000000" fill-opacity="1"><g transform="translate(39.838712, 47.998305)"><g><path d="M 0.890625 -4.140625 C 0.753906 -4.140625 0.632812 -4.191406 0.53125 -4.296875 C 0.425781 -4.410156 0.375 -4.535156 0.375 -4.671875 C 0.375 -4.816406 0.425781 -4.9375 0.53125 -5.03125 C 0.632812 -5.132812 0.753906 -5.1875 0.890625 -5.1875 C 1.003906 -5.1875 1.101562 -5.15625 1.1875 -5.09375 C 1.269531 -5.039062 1.332031 -4.972656 1.375 -4.890625 C 1.414062 -4.972656 1.476562 -5.039062 1.5625 -5.09375 C 1.644531 -5.15625 1.738281 -5.1875 1.84375 -5.1875 C 1.988281 -5.1875 2.113281 -5.132812 2.21875 -5.03125 C 2.320312 -4.9375 2.375 -4.816406 2.375 -4.671875 C 2.375 -4.535156 2.320312 -4.410156 2.21875 -4.296875 C 2.113281 -4.191406 1.988281 -4.140625 1.84375 -4.140625 C 1.738281 -4.140625 1.644531 -4.171875 1.5625 -4.234375 C 1.476562 -4.296875 1.414062 -4.375 1.375 -4.46875 C 1.332031 -4.375 1.269531 -4.296875 1.1875 -4.234375 C 1.101562 -4.171875 1.003906 -4.140625 0.890625 -4.140625 Z M 0 0 C -0.0390625 0 -0.0820312 -0.0507812 -0.125 -0.15625 C -0.164062 -0.257812 -0.1875 -0.363281 -0.1875 -0.46875 C -0.1875 -0.570312 -0.164062 -0.671875 -0.125 -0.765625 C -0.09375 -0.867188 -0.0507812 -0.921875 0 -0.921875 C 0.125 -0.921875 0.242188 -0.957031 0.359375 -1.03125 C 0.472656 -1.101562 0.570312 -1.207031 0.65625 -1.34375 C 0.738281 -1.476562 0.769531 -1.644531 0.75 -1.84375 L 0.65625 -3.703125 L 1.859375 -3.5625 L 1.84375 -2.203125 C 1.84375 -1.773438 1.921875 -1.453125 2.078125 -1.234375 C 2.242188 -1.023438 2.460938 -0.921875 2.734375 -0.921875 C 2.773438 -0.921875 2.8125 -0.867188 2.84375 -0.765625 C 2.882812 -0.671875 2.90625 -0.570312 2.90625 -0.46875 C 2.90625 -0.363281 2.882812 -0.257812 2.84375 -0.15625 C 2.8125 -0.0507812 2.773438 0 2.734375 0 C 2.546875 0 2.359375 -0.03125 2.171875 -0.09375 C 1.992188 -0.164062 1.832031 -0.253906 1.6875 -0.359375 C 1.550781 -0.472656 1.453125 -0.59375 1.390625 -0.71875 C 1.203125 -0.5 1.003906 -0.320312 0.796875 -0.1875 C 0.597656 -0.0625 0.332031 0 0 0 Z M 0 0 "/></g></g></g><g fill="#000000" fill-opacity="1"><g transform="translate(42.570114, 47.998305)"><g><path d="M 0 0 C -0.0390625 0 -0.0820312 -0.0507812 -0.125 -0.15625 C -0.164062 -0.257812 -0.1875 -0.363281 -0.1875 -0.46875 C -0.1875 -0.570312 -0.164062 -0.671875 -0.125 -0.765625 C -0.0820312 -0.867188 -0.0390625 -0.921875 0 -0.921875 C 0.207031 -0.921875 0.441406 -0.953125 0.703125 -1.015625 C 0.972656 -1.085938 1.226562 -1.1875 1.46875 -1.3125 C 1.71875 -1.4375 1.921875 -1.59375 2.078125 -1.78125 C 2.242188 -1.96875 2.328125 -2.1875 2.328125 -2.4375 C 2.328125 -2.632812 2.25 -2.816406 2.09375 -2.984375 C 1.945312 -3.160156 1.738281 -3.289062 1.46875 -3.375 C 1.195312 -3.46875 0.878906 -3.488281 0.515625 -3.4375 L 0.140625 -4.0625 L 3.359375 -7 L 4.046875 -5.953125 L 1.140625 -4.046875 C 1.421875 -4.054688 1.695312 -4.023438 1.96875 -3.953125 C 2.25 -3.878906 2.503906 -3.769531 2.734375 -3.625 C 2.960938 -3.488281 3.144531 -3.3125 3.28125 -3.09375 C 3.425781 -2.882812 3.5 -2.644531 3.5 -2.375 C 3.5 -2.132812 3.457031 -1.914062 3.375 -1.71875 C 3.40625 -1.519531 3.460938 -1.359375 3.546875 -1.234375 C 3.640625 -1.117188 3.742188 -1.035156 3.859375 -0.984375 C 3.972656 -0.941406 4.070312 -0.921875 4.15625 -0.921875 C 4.207031 -0.921875 4.25 -0.867188 4.28125 -0.765625 C 4.320312 -0.671875 4.34375 -0.570312 4.34375 -0.46875 C 4.34375 -0.363281 4.320312 -0.257812 4.28125 -0.15625 C 4.25 -0.0507812 4.207031 0 4.15625 0 C 3.976562 0 3.804688 -0.046875 3.640625 -0.140625 C 3.472656 -0.234375 3.332031 -0.363281 3.21875 -0.53125 C 3.101562 -0.707031 3.035156 -0.90625 3.015625 -1.125 C 2.773438 -0.863281 2.476562 -0.644531 2.125 -0.46875 C 1.769531 -0.300781 1.40625 -0.179688 1.03125 -0.109375 C 0.65625 -0.0351562 0.3125 0 0 0 Z M 0 0 "/></g></g></g><g fill="#000000" fill-opacity="1"><g transform="translate(46.725818, 47.998305)"><g><path d="M 2.640625 0.125 C 2.316406 0.132812 2.015625 0.078125 1.734375 -0.046875 C 1.460938 -0.171875 1.226562 -0.34375 1.03125 -0.5625 C 0.9375 -0.394531 0.800781 -0.257812 0.625 -0.15625 C 0.457031 -0.0507812 0.25 0 0 0 C -0.0390625 0 -0.0820312 -0.0507812 -0.125 -0.15625 C -0.164062 -0.257812 -0.1875 -0.363281 -0.1875 -0.46875 C -0.1875 -0.570312 -0.164062 -0.671875 -0.125 -0.765625 C -0.0820312 -0.867188 -0.0390625 -0.921875 0 -0.921875 C 0.144531 -0.921875 0.253906 -0.988281 0.328125 -1.125 C 0.410156 -1.257812 0.46875 -1.421875 0.5 -1.609375 C 0.53125 -1.796875 0.546875 -1.96875 0.546875 -2.125 C 0.546875 -2.507812 0.628906 -2.859375 0.796875 -3.171875 C 0.972656 -3.492188 1.207031 -3.753906 1.5 -3.953125 C 1.800781 -4.148438 2.128906 -4.253906 2.484375 -4.265625 C 2.878906 -4.285156 3.226562 -4.195312 3.53125 -4 C 3.84375 -3.8125 4.09375 -3.546875 4.28125 -3.203125 C 4.46875 -2.867188 4.566406 -2.476562 4.578125 -2.03125 C 4.585938 -1.789062 4.554688 -1.546875 4.484375 -1.296875 C 4.410156 -1.046875 4.296875 -0.816406 4.140625 -0.609375 C 3.984375 -0.398438 3.78125 -0.226562 3.53125 -0.09375 C 3.289062 0.0390625 2.992188 0.113281 2.640625 0.125 Z M 2.40625 -0.921875 C 2.613281 -0.929688 2.800781 -0.988281 2.96875 -1.09375 C 3.144531 -1.195312 3.28125 -1.335938 3.375 -1.515625 C 3.476562 -1.691406 3.53125 -1.882812 3.53125 -2.09375 C 3.519531 -2.300781 3.457031 -2.492188 3.34375 -2.671875 C 3.238281 -2.847656 3.097656 -2.984375 2.921875 -3.078125 C 2.753906 -3.179688 2.566406 -3.226562 2.359375 -3.21875 C 2.140625 -3.21875 1.945312 -3.160156 1.78125 -3.046875 C 1.613281 -2.941406 1.476562 -2.800781 1.375 -2.625 C 1.28125 -2.445312 1.238281 -2.25 1.25 -2.03125 C 1.25 -1.820312 1.300781 -1.632812 1.40625 -1.46875 C 1.507812 -1.300781 1.648438 -1.164062 1.828125 -1.0625 C 2.003906 -0.96875 2.195312 -0.921875 2.40625 -0.921875 Z M 2.40625 -0.921875 "/></g></g></g><g clip-path="url(#d31844186b)"><path fill="#000000" d="M 47.9375 32.929688 C 47.9375 32.925781 47.941406 32.925781 47.9375 32.929688 C 47.9375 32.925781 47.9375 32.925781 47.9375 32.925781 L 47.550781 30.460938 L 44.367188 10.386719 C 44.355469 10.300781 44.308594 10.222656 44.238281 10.171875 C 44.167969 10.121094 44.085938 10.101562 43.996094 10.113281 L 38.527344 10.984375 C 38.351562 11.011719 38.230469 11.179688 38.257812 11.359375 L 39.003906 16.066406 L 33.5 16.066406 L 33.5 9.25 C 33.5 9.070312 33.351562 8.921875 33.171875 8.921875 L 24.097656 8.921875 C 23.917969 8.921875 23.773438 9.070312 23.773438 9.25 L 23.773438 13.0625 L 15.128906 11.789062 C 14.953125 11.769531 14.785156 11.890625 14.757812 12.066406 L 14.214844 15.785156 C 14.214844 15.785156 14.210938 15.785156 14.210938 15.789062 C 14.210938 15.789062 14.214844 15.789062 14.214844 15.792969 L 13.863281 18.191406 C 13.863281 18.191406 13.859375 18.191406 13.859375 18.191406 L 12.203125 29.519531 L 11.894531 31.625 C 11.894531 31.628906 11.890625 31.628906 11.890625 31.628906 C 11.890625 31.628906 11.894531 31.628906 11.890625 31.628906 L 11.304688 35.625 C 11.292969 35.707031 11.316406 35.796875 11.367188 35.867188 C 11.417969 35.9375 11.496094 35.980469 11.582031 35.996094 L 20.597656 37.324219 C 20.613281 37.324219 20.628906 37.324219 20.644531 37.324219 C 20.804688 37.324219 20.945312 37.210938 20.96875 37.046875 L 21.535156 33.164062 C 21.535156 33.164062 21.539062 33.164062 21.539062 33.160156 C 21.539062 33.160156 21.539062 33.160156 21.539062 33.15625 L 21.855469 30.988281 C 21.855469 30.984375 21.855469 30.984375 21.855469 30.984375 C 21.855469 30.984375 21.855469 30.984375 21.855469 30.980469 L 23.5 19.757812 C 23.5 19.753906 23.503906 19.753906 23.503906 19.753906 C 23.503906 19.753906 23.5 19.753906 23.503906 19.75 L 23.773438 17.914062 L 23.773438 36.9375 C 23.773438 37.117188 23.917969 37.265625 24.097656 37.265625 L 39.335938 37.265625 C 39.515625 37.265625 39.664062 37.117188 39.664062 36.9375 L 39.664062 20.226562 L 41.441406 31.453125 L 42.347656 37.183594 C 42.363281 37.269531 42.410156 37.347656 42.480469 37.394531 C 42.535156 37.4375 42.601562 37.460938 42.671875 37.460938 C 42.6875 37.460938 42.703125 37.457031 42.722656 37.457031 L 48.1875 36.585938 C 48.367188 36.554688 48.488281 36.386719 48.460938 36.210938 Z M 22.90625 19.328125 L 14.550781 17.972656 L 14.808594 16.210938 L 23.171875 17.515625 Z M 20.941406 32.734375 L 12.582031 31.40625 L 12.796875 29.941406 L 21.164062 31.207031 Z M 21.261719 30.5625 L 12.894531 29.292969 L 14.457031 18.617188 L 22.8125 19.972656 Z M 33.496094 22.339844 L 39.011719 22.339844 L 39.011719 24.230469 L 33.496094 24.230469 Z M 32.84375 16.394531 L 32.84375 28.726562 L 24.421875 28.726562 L 24.421875 14.066406 L 32.84375 14.066406 Z M 32.84375 13.414062 L 24.421875 13.414062 L 24.421875 12.4375 L 32.84375 12.4375 Z M 24.421875 29.378906 L 32.84375 29.378906 L 32.84375 31.667969 L 24.421875 31.667969 Z M 33.496094 24.882812 L 39.011719 24.882812 L 39.011719 34.1875 L 33.496094 34.1875 Z M 39.011719 16.722656 L 39.011719 21.6875 L 33.496094 21.6875 L 33.496094 16.722656 Z M 32.84375 9.574219 L 32.84375 11.785156 L 24.421875 11.785156 L 24.421875 9.574219 Z M 15.355469 12.484375 L 23.726562 13.71875 L 23.265625 16.871094 L 14.902344 15.566406 Z M 20.371094 36.628906 L 12 35.394531 L 12.488281 32.054688 L 20.847656 33.382812 Z M 24.421875 32.320312 L 32.84375 32.320312 L 32.84375 36.609375 L 24.421875 36.609375 Z M 33.496094 36.609375 L 33.496094 34.839844 L 39.011719 34.839844 L 39.011719 36.609375 Z M 42.136719 31.671875 L 46.957031 30.886719 L 47.246094 32.722656 L 42.441406 33.609375 Z M 40.023438 18.335938 L 44.832031 17.480469 L 46.855469 30.242188 L 42.035156 31.027344 Z M 39.667969 16.097656 L 44.476562 15.230469 L 44.730469 16.832031 L 39.921875 17.6875 Z M 43.777344 10.8125 L 44.371094 14.582031 L 39.566406 15.453125 L 38.953125 11.578125 Z M 42.941406 36.757812 L 42.546875 34.257812 L 47.351562 33.367188 L 47.765625 35.988281 Z M 42.941406 36.757812 " fill-opacity="1" fill-rule="nonzero"/></g></svg>