<svg xmlns="http://www.w3.org/2000/svg" xmlns:xlink="http://www.w3.org/1999/xlink" width="80" zoomAndPan="magnify" viewBox="0 0 60 60" height="80" preserveAspectRatio="xMidYMid meet" version="1.0"><defs><g/><clipPath id="1448fd9f19"><path d="M 18.027344 28 L 42.027344 28 L 42.027344 30.664062 L 18.027344 30.664062 Z M 18.027344 28 " clip-rule="nonzero"/></clipPath><clipPath id="3e8c082ec6"><path d="M 20 24.664062 L 30 24.664062 L 30 29 L 20 29 Z M 20 24.664062 " clip-rule="nonzero"/></clipPath><clipPath id="4371c446e9"><path d="M 18.027344 28 L 30 28 L 30 30 L 18.027344 30 Z M 18.027344 28 " clip-rule="nonzero"/></clipPath><clipPath id="b78e688e38"><path d="M 30 24.664062 L 40 24.664062 L 40 29 L 30 29 Z M 30 24.664062 " clip-rule="nonzero"/></clipPath><clipPath id="9a20175232"><path d="M 23.769531 20 L 30 20 L 30 23 L 23.769531 23 Z M 23.769531 20 " clip-rule="nonzero"/></clipPath><clipPath id="657de4e82e"><path d="M 29 22 L 34 22 L 34 23.984375 L 29 23.984375 Z M 29 22 " clip-rule="nonzero"/></clipPath><clipPath id="0aa247a878"><path d="M 26 17 L 34.269531 17 L 34.269531 20 L 26 20 Z M 26 17 " clip-rule="nonzero"/></clipPath></defs><rect x="-6" width="72" fill="#ffffff" y="-6" height="72" fill-opacity="1"/><rect x="-6" width="72" fill="#5ce1e6" y="-6" height="72" fill-opacity="1"/><g clip-path="url(#1448fd9f19)"><path fill="#000000" d="M 41.636719 30.664062 L 30.964844 30.664062 C 30.871094 30.664062 30.777344 30.625 30.703125 30.550781 L 30.027344 29.894531 L 29.351562 30.550781 C 29.277344 30.625 29.183594 30.664062 29.089844 30.664062 L 18.417969 30.664062 C 18.214844 30.664062 18.046875 30.492188 18.046875 30.289062 C 18.046875 30.082031 18.214844 29.914062 18.417969 29.914062 L 28.941406 29.914062 L 29.765625 29.105469 C 29.914062 28.957031 30.140625 28.957031 30.289062 29.105469 L 31.113281 29.914062 L 41.636719 29.914062 C 41.839844 29.914062 42.011719 30.082031 42.011719 30.289062 C 42.011719 30.492188 41.839844 30.664062 41.636719 30.664062 Z M 41.636719 30.664062 " fill-opacity="1" fill-rule="nonzero"/></g><g clip-path="url(#3e8c082ec6)"><path fill="#000000" d="M 20.574219 25.394531 L 22.632812 24.664062 C 22.632812 24.664062 27.78125 24.757812 29.746094 27.792969 L 29.746094 28.898438 C 29.746094 28.898438 26.75 25.394531 20.574219 25.394531 Z M 20.574219 25.394531 " fill-opacity="1" fill-rule="nonzero"/></g><path fill="#000000" d="M 20.105469 26.050781 L 21.226562 25.675781 C 21.226562 25.675781 26.46875 25.675781 29.464844 28.804688 C 29.464844 28.824219 25.535156 26.238281 20.105469 26.050781 Z M 20.105469 26.050781 " fill-opacity="1" fill-rule="nonzero"/><path fill="#000000" d="M 19.542969 27.699219 L 20.105469 26.59375 C 20.105469 26.59375 26.097656 26.78125 29.277344 28.804688 C 29.277344 28.824219 21.789062 27.15625 19.542969 27.699219 Z M 19.542969 27.699219 " fill-opacity="1" fill-rule="nonzero"/><g clip-path="url(#4371c446e9)"><path fill="#000000" d="M 19.167969 28.636719 C 19.167969 28.636719 22.539062 27.53125 29.277344 29.199219 C 29.277344 29.199219 22.351562 28.46875 18.980469 29.199219 Z M 19.167969 28.636719 " fill-opacity="1" fill-rule="nonzero"/></g><g clip-path="url(#b78e688e38)"><path fill="#000000" d="M 39.390625 25.394531 L 37.328125 24.664062 C 37.328125 24.664062 32.179688 24.757812 30.214844 27.792969 L 30.214844 28.898438 C 30.214844 28.898438 33.210938 25.394531 39.390625 25.394531 Z M 39.390625 25.394531 " fill-opacity="1" fill-rule="nonzero"/></g><path fill="#000000" d="M 39.855469 26.050781 L 38.734375 25.675781 C 38.734375 25.675781 33.492188 25.675781 30.496094 28.804688 C 30.496094 28.824219 34.425781 26.238281 39.855469 26.050781 Z M 39.855469 26.050781 " fill-opacity="1" fill-rule="nonzero"/><path fill="#000000" d="M 40.417969 27.699219 L 39.855469 26.59375 C 39.855469 26.59375 33.867188 26.78125 30.683594 28.804688 C 30.683594 28.824219 38.171875 27.15625 40.417969 27.699219 Z M 40.417969 27.699219 " fill-opacity="1" fill-rule="nonzero"/><path fill="#000000" d="M 40.792969 28.636719 C 40.792969 28.636719 37.421875 27.53125 30.683594 29.199219 C 30.683594 29.199219 37.609375 28.46875 40.980469 29.199219 Z M 40.792969 28.636719 " fill-opacity="1" fill-rule="nonzero"/><g clip-path="url(#9a20175232)"><path fill="#000000" d="M 26.886719 21.257812 C 26.828125 21.175781 25.621094 19.613281 23.78125 21.039062 C 23.78125 21.039062 24.9375 20.703125 25.617188 20.96875 C 25.988281 21.117188 26.816406 22.144531 26.882812 22.230469 C 26.886719 22.230469 26.886719 22.230469 26.886719 22.234375 C 26.886719 22.230469 26.890625 22.230469 26.890625 22.230469 C 26.960938 22.144531 27.785156 21.117188 28.15625 20.96875 C 28.839844 20.703125 29.992188 21.039062 29.992188 21.039062 C 28.152344 19.613281 26.949219 21.175781 26.886719 21.257812 " fill-opacity="1" fill-rule="nonzero"/></g><g clip-path="url(#657de4e82e)"><path fill="#000000" d="M 31.375 23.0625 C 31.332031 23.003906 30.464844 21.878906 29.144531 22.90625 C 29.144531 22.90625 29.972656 22.664062 30.464844 22.855469 C 30.730469 22.960938 31.324219 23.699219 31.371094 23.761719 C 31.375 23.761719 31.375 23.761719 31.375 23.761719 C 31.425781 23.699219 32.019531 22.960938 32.285156 22.855469 C 32.777344 22.664062 33.605469 22.90625 33.605469 22.90625 C 32.285156 21.878906 31.417969 23.003906 31.375 23.0625 " fill-opacity="1" fill-rule="nonzero"/></g><g clip-path="url(#0aa247a878)"><path fill="#000000" d="M 30.523438 18.414062 C 30.453125 18.316406 29.039062 16.484375 26.886719 18.15625 C 26.886719 18.15625 28.238281 17.761719 29.039062 18.074219 C 29.472656 18.246094 30.441406 19.449219 30.523438 19.550781 C 30.523438 19.550781 30.523438 19.554688 30.523438 19.554688 C 30.527344 19.554688 30.527344 19.550781 30.527344 19.550781 C 30.609375 19.449219 31.574219 18.246094 32.011719 18.074219 C 32.808594 17.761719 34.164062 18.15625 34.164062 18.15625 C 32.007812 16.484375 30.597656 18.316406 30.523438 18.414062 " fill-opacity="1" fill-rule="nonzero"/></g><g fill="#000000" fill-opacity="1"><g transform="translate(20.1863, 38.974417)"><g><path d="M 2.34375 0 C 1.738281 0 1.253906 -0.113281 0.890625 -0.34375 C 0.523438 -0.570312 0.34375 -0.894531 0.34375 -1.3125 C 0.34375 -1.46875 0.367188 -1.632812 0.421875 -1.8125 C 0.484375 -1.988281 0.5625 -2.148438 0.65625 -2.296875 C 0.757812 -2.453125 0.875 -2.570312 1 -2.65625 L 1.296875 -2.171875 C 1.242188 -2.117188 1.191406 -2.03125 1.140625 -1.90625 C 1.097656 -1.789062 1.078125 -1.6875 1.078125 -1.59375 C 1.085938 -1.5 1.132812 -1.398438 1.21875 -1.296875 C 1.3125 -1.203125 1.460938 -1.113281 1.671875 -1.03125 C 1.890625 -0.957031 2.1875 -0.921875 2.5625 -0.921875 C 2.75 -0.921875 2.945312 -0.929688 3.15625 -0.953125 C 3.375 -0.984375 3.566406 -1.035156 3.734375 -1.109375 C 3.910156 -1.179688 4.035156 -1.289062 4.109375 -1.4375 C 4.179688 -1.59375 4.160156 -1.796875 4.046875 -2.046875 C 3.972656 -2.210938 3.882812 -2.378906 3.78125 -2.546875 C 3.6875 -2.722656 3.597656 -2.878906 3.515625 -3.015625 L 4.1875 -4.09375 C 4.21875 -4.050781 4.265625 -3.96875 4.328125 -3.84375 C 4.398438 -3.71875 4.476562 -3.566406 4.5625 -3.390625 C 4.644531 -3.222656 4.722656 -3.039062 4.796875 -2.84375 C 4.867188 -2.65625 4.925781 -2.476562 4.96875 -2.3125 C 5.007812 -2.132812 5.023438 -1.941406 5.015625 -1.734375 C 5.015625 -1.535156 4.972656 -1.332031 4.890625 -1.125 C 4.816406 -0.914062 4.679688 -0.726562 4.484375 -0.5625 C 4.296875 -0.394531 4.023438 -0.257812 3.671875 -0.15625 C 3.328125 -0.0507812 2.882812 0 2.34375 0 Z M 1.6875 -2.90625 C 1.550781 -2.90625 1.429688 -2.953125 1.328125 -3.046875 C 1.234375 -3.148438 1.1875 -3.273438 1.1875 -3.421875 C 1.1875 -3.554688 1.234375 -3.671875 1.328125 -3.765625 C 1.429688 -3.867188 1.550781 -3.921875 1.6875 -3.921875 C 1.800781 -3.921875 1.898438 -3.894531 1.984375 -3.84375 C 2.066406 -3.789062 2.125 -3.71875 2.15625 -3.625 C 2.207031 -3.71875 2.269531 -3.789062 2.34375 -3.84375 C 2.425781 -3.894531 2.519531 -3.921875 2.625 -3.921875 C 2.769531 -3.921875 2.890625 -3.867188 2.984375 -3.765625 C 3.085938 -3.671875 3.140625 -3.554688 3.140625 -3.421875 C 3.140625 -3.273438 3.085938 -3.148438 2.984375 -3.046875 C 2.890625 -2.953125 2.769531 -2.90625 2.625 -2.90625 C 2.519531 -2.90625 2.425781 -2.929688 2.34375 -2.984375 C 2.269531 -3.046875 2.207031 -3.125 2.15625 -3.21875 C 2.125 -3.125 2.066406 -3.046875 1.984375 -2.984375 C 1.898438 -2.929688 1.800781 -2.90625 1.6875 -2.90625 Z M 1.6875 -2.90625 "/></g></g></g><g fill="#000000" fill-opacity="1"><g transform="translate(25.538492, 38.974417)"><g><path d="M 2.328125 0 C 1.992188 0 1.710938 -0.0546875 1.484375 -0.171875 C 1.265625 -0.285156 1.085938 -0.5 0.953125 -0.8125 C 0.828125 -1.132812 0.75 -1.59375 0.71875 -2.1875 L 0.421875 -6.1875 L 1.578125 -6.546875 L 1.515625 -2.15625 C 1.503906 -1.71875 1.566406 -1.398438 1.703125 -1.203125 C 1.835938 -1.003906 2.046875 -0.90625 2.328125 -0.90625 C 2.367188 -0.90625 2.40625 -0.851562 2.4375 -0.75 C 2.476562 -0.65625 2.5 -0.554688 2.5 -0.453125 C 2.5 -0.347656 2.476562 -0.242188 2.4375 -0.140625 C 2.40625 -0.046875 2.367188 0 2.328125 0 Z M 2.328125 0 "/></g></g></g><g fill="#000000" fill-opacity="1"><g transform="translate(27.863621, 38.974417)"><g><path d="M 0 0 C -0.0390625 0 -0.078125 -0.046875 -0.109375 -0.140625 C -0.148438 -0.242188 -0.171875 -0.347656 -0.171875 -0.453125 C -0.171875 -0.554688 -0.148438 -0.65625 -0.109375 -0.75 C -0.078125 -0.851562 -0.0390625 -0.90625 0 -0.90625 C 0.195312 -0.90625 0.378906 -0.9375 0.546875 -1 C 0.710938 -1.070312 0.84375 -1.171875 0.9375 -1.296875 C 1.039062 -1.429688 1.085938 -1.597656 1.078125 -1.796875 L 0.875 -3.78125 L 2.078125 -4.078125 L 2.0625 -1.84375 C 2.0625 -1.476562 1.96875 -1.15625 1.78125 -0.875 C 1.601562 -0.601562 1.359375 -0.390625 1.046875 -0.234375 C 0.734375 -0.078125 0.382812 0 0 0 Z M 0.6875 1.390625 C 0.550781 1.390625 0.429688 1.335938 0.328125 1.234375 C 0.234375 1.140625 0.1875 1.023438 0.1875 0.890625 C 0.1875 0.742188 0.234375 0.617188 0.328125 0.515625 C 0.429688 0.421875 0.550781 0.375 0.6875 0.375 C 0.800781 0.375 0.894531 0.398438 0.96875 0.453125 C 1.050781 0.515625 1.113281 0.59375 1.15625 0.6875 C 1.195312 0.59375 1.257812 0.515625 1.34375 0.453125 C 1.425781 0.398438 1.519531 0.375 1.625 0.375 C 1.757812 0.375 1.878906 0.421875 1.984375 0.515625 C 2.085938 0.617188 2.140625 0.742188 2.140625 0.890625 C 2.140625 1.023438 2.085938 1.140625 1.984375 1.234375 C 1.878906 1.335938 1.757812 1.390625 1.625 1.390625 C 1.519531 1.390625 1.425781 1.363281 1.34375 1.3125 C 1.257812 1.257812 1.195312 1.1875 1.15625 1.09375 C 1.113281 1.1875 1.050781 1.257812 0.96875 1.3125 C 0.894531 1.363281 0.800781 1.390625 0.6875 1.390625 Z M 0.6875 1.390625 "/></g></g></g><g fill="#000000" fill-opacity="1"><g transform="translate(30.285271, 38.974417)"><g><path d="M 0.796875 -0.234375 L 0.6875 -0.234375 L 0.34375 -6.203125 L 1.515625 -6.546875 L 1.34375 -1.46875 Z M 0.796875 -0.234375 "/></g></g></g><g fill="#000000" fill-opacity="1"><g transform="translate(32.14538, 38.974417)"><g><path d="M 2.140625 1.71875 L 1.59375 0.859375 L 1.59375 0.6875 C 1.789062 0.664062 1.992188 0.613281 2.203125 0.53125 C 2.421875 0.445312 2.628906 0.335938 2.828125 0.203125 C 3.023438 0.078125 3.191406 -0.0625 3.328125 -0.21875 L 3.3125 -0.25 C 2.96875 -0.09375 2.640625 -0.015625 2.328125 -0.015625 C 2.054688 -0.015625 1.796875 -0.0664062 1.546875 -0.171875 C 1.304688 -0.285156 1.097656 -0.441406 0.921875 -0.640625 C 0.742188 -0.835938 0.601562 -1.054688 0.5 -1.296875 C 0.394531 -1.546875 0.34375 -1.804688 0.34375 -2.078125 C 0.34375 -2.335938 0.394531 -2.585938 0.5 -2.828125 C 0.601562 -3.078125 0.738281 -3.300781 0.90625 -3.5 C 1.082031 -3.695312 1.285156 -3.851562 1.515625 -3.96875 C 1.753906 -4.082031 2.007812 -4.140625 2.28125 -4.140625 C 2.625 -4.140625 2.941406 -4.035156 3.234375 -3.828125 C 3.535156 -3.628906 3.78125 -3.332031 3.96875 -2.9375 C 4.164062 -2.550781 4.265625 -2.066406 4.265625 -1.484375 C 4.265625 -0.898438 4.164062 -0.382812 3.96875 0.0625 C 3.769531 0.519531 3.507812 0.890625 3.1875 1.171875 C 2.863281 1.460938 2.515625 1.644531 2.140625 1.71875 Z M 2.328125 -1.15625 C 2.515625 -1.15625 2.6875 -1.203125 2.84375 -1.296875 C 3.007812 -1.390625 3.132812 -1.515625 3.21875 -1.671875 C 3.3125 -1.835938 3.359375 -2.007812 3.359375 -2.1875 C 3.359375 -2.382812 3.3125 -2.5625 3.21875 -2.71875 C 3.132812 -2.882812 3.007812 -3.015625 2.84375 -3.109375 C 2.6875 -3.203125 2.515625 -3.25 2.328125 -3.25 C 2.128906 -3.25 1.953125 -3.203125 1.796875 -3.109375 C 1.640625 -3.015625 1.515625 -2.882812 1.421875 -2.71875 C 1.328125 -2.5625 1.28125 -2.382812 1.28125 -2.1875 C 1.28125 -2.007812 1.328125 -1.835938 1.421875 -1.671875 C 1.515625 -1.515625 1.640625 -1.390625 1.796875 -1.296875 C 1.953125 -1.203125 2.128906 -1.15625 2.328125 -1.15625 Z M 2.328125 -1.15625 "/></g></g></g><g fill="#000000" fill-opacity="1"><g transform="translate(36.751776, 38.974417)"><g><path d="M 0.84375 1.65625 L 0 0.890625 L 0 0.75 C 0.15625 0.75 0.328125 0.703125 0.515625 0.609375 C 0.710938 0.523438 0.90625 0.40625 1.09375 0.25 C 1.28125 0.101562 1.445312 -0.0664062 1.59375 -0.265625 C 1.738281 -0.460938 1.847656 -0.671875 1.921875 -0.890625 C 1.992188 -1.117188 2.003906 -1.347656 1.953125 -1.578125 L 1.5 -3.53125 L 2.703125 -4.203125 L 2.65625 -1.171875 C 2.65625 -0.734375 2.566406 -0.316406 2.390625 0.078125 C 2.222656 0.472656 2.003906 0.804688 1.734375 1.078125 C 1.460938 1.359375 1.164062 1.550781 0.84375 1.65625 Z M 0.84375 1.65625 "/></g></g></g></svg>